<svg width="182" height="52" viewBox="0 0 182 52" fill="none" xmlns="http://www.w3.org/2000/svg">
<g clip-path="url(#clip0_11_254)">
<path d="M31.4087 25.6387H0V36.1082H31.4087V25.6387Z" fill="#00A040"/>
<path d="M31.4087 38.4358H0V48.9053H31.4087V38.4358Z" fill="#008CD6"/>
<path fill-rule="evenodd" clip-rule="evenodd" d="M43.0405 26.459V48.0897H47.4428V38.6313H56.5989V34.4528H47.4428V30.6317H56.7529V26.459H43.0405Z" fill="#008CD6"/>
<path fill-rule="evenodd" clip-rule="evenodd" d="M69.5531 44.9858V37.9508C69.5531 35.6291 68.353 32.6855 63.2708 32.6855C61.2716 32.6855 59.6443 33.1331 58.546 33.5747V37.4075C59.8013 36.6229 61.1902 36.2074 62.71 36.2074C64.0815 36.2074 65.4472 36.6752 65.4472 38.2879V38.3896C64.776 38.1513 63.9159 37.9915 63.0238 37.9915C59.563 37.9915 57.0117 39.8047 57.0117 43.3643C57.0117 46.9239 59.8739 48.185 62.1666 48.185C63.5991 48.185 64.8312 47.7259 65.6303 47.0808C65.7117 47.5283 65.825 47.9003 65.9644 48.0891H70.4888C69.9454 47.6533 69.5531 46.7728 69.5531 44.9887V44.9858ZM61.1379 42.9023C61.1379 41.7051 62.1666 40.9031 63.634 40.9031C64.3808 40.9031 64.9794 41.0688 65.4472 41.3216V43.9019C65.0346 44.2767 64.3169 44.7155 63.2679 44.7155C61.9051 44.7155 61.1379 43.9455 61.1379 42.9023Z" fill="#008CD6"/>
<path fill-rule="evenodd" clip-rule="evenodd" d="M158.859 44.9858V37.9508C158.859 35.6291 157.665 32.6855 152.577 32.6855C150.578 32.6855 148.951 33.1331 147.846 33.5747V37.4075C149.11 36.6229 150.499 36.2074 152.019 36.2074C153.385 36.2074 154.75 36.6752 154.75 38.2879V38.3896C154.073 38.1513 153.219 37.9915 152.333 37.9915C148.869 37.9915 146.321 39.8047 146.321 43.3643C146.321 46.9239 149.18 48.185 151.473 48.185C152.905 48.185 154.134 47.7259 154.933 47.0808C155.018 47.5283 155.137 47.9003 155.265 48.0891H159.798C159.254 47.6533 158.862 46.7728 158.862 44.9887L158.859 44.9858ZM150.45 42.9023C150.45 41.7051 151.473 40.9031 152.937 40.9031C153.687 40.9031 154.285 41.0688 154.75 41.3216V43.9019C154.332 44.2767 153.626 44.7155 152.568 44.7155C151.214 44.7155 150.447 43.9455 150.447 42.9023H150.45Z" fill="#008CD6"/>
<path fill-rule="evenodd" clip-rule="evenodd" d="M87.8101 32.8359C86.026 32.8359 84.7155 33.2631 83.4921 34.5678C82.6291 33.4781 81.2634 32.8359 79.6216 32.8359C78.2704 32.8359 77.0093 33.2253 75.8615 34.2307V32.9841H72.02V48.0855H76.1521V37.9094C76.6489 37.2934 77.3522 36.7733 78.3285 36.7733C79.5722 36.7733 80.2783 37.6247 80.2783 39.1647V48.0855H84.4917V37.8019C84.9682 37.1975 85.6627 36.7733 86.6391 36.7733C87.9845 36.7733 88.5918 37.7264 88.5918 39.1647V48.0855H92.8051V37.6247C92.8051 34.7915 90.992 32.8359 87.813 32.8359H87.8101Z" fill="#008CD6"/>
<path d="M106.631 26.459H102.504V48.0868H106.631V26.459Z" fill="#008CD6"/>
<path fill-rule="evenodd" clip-rule="evenodd" d="M134.517 33.1772L129.049 26.459H124.527V48.0868H129.049V33.1772L134.517 40.4126L139.977 33.1772V48.0868H144.502V26.459H139.977L134.517 33.1772Z" fill="#008CD6"/>
<path d="M99.6628 32.9846H95.5308V48.086H99.6628V32.9846Z" fill="#008CD6"/>
<path fill-rule="evenodd" clip-rule="evenodd" d="M97.5937 26.127C96.1146 26.127 94.9116 27.3241 94.9116 28.809C94.9116 30.2939 96.1146 31.4882 97.5937 31.4882C99.0727 31.4882 100.276 30.288 100.276 28.809C100.276 27.3299 99.0786 26.127 97.5937 26.127Z" fill="#008CD6"/>
<path fill-rule="evenodd" clip-rule="evenodd" d="M165.101 34.5703V32.9838H161.144V48.0852H165.281V38.5978C165.877 37.8307 166.848 37.1391 168.248 37.1391C169.329 37.1391 170.12 37.5604 170.57 37.8946V33.347C170.062 32.9838 169.242 32.7949 168.562 32.7949C167.388 32.7949 166.098 33.2424 165.101 34.5674V34.5703Z" fill="#008CD6"/>
<path fill-rule="evenodd" clip-rule="evenodd" d="M179.444 44.2308C178.131 44.2308 177.637 43.2167 177.637 42.0979V36.9431H181.159V32.9883H177.637V27.2871L173.563 29.019V32.9883H171.334V36.9431H173.563V42.7052C173.563 45.8406 174.815 48.2611 178.503 48.2611C179.598 48.2611 180.572 48.0897 181.214 47.834V43.6583C180.909 44.007 180.339 44.2337 179.444 44.2337V44.2308Z" fill="#008CD6"/>
<path fill-rule="evenodd" clip-rule="evenodd" d="M111.617 52.0001H116.261L123.229 32.9846H118.702L115.831 41.1441L112.716 32.9846H108L113.689 46.6825L111.617 52.0001Z" fill="#008CD6"/>
<path fill-rule="evenodd" clip-rule="evenodd" d="M48.7244 1.00977C49.0731 1.00977 49.4857 1.00977 49.7792 1.14343C49.9012 1.19864 49.9565 1.32069 50.0349 1.42529C50.2906 1.76527 50.4592 1.89313 50.4098 2.40745C50.3865 2.63701 50.2354 3.01185 50.3749 3.22107C50.5114 3.43029 50.7991 3.41867 51.0171 3.4855C51.1711 3.53199 51.3193 3.59592 51.4587 3.66566C51.5226 3.69471 51.6156 3.71796 51.665 3.7877C51.6999 3.90393 51.7319 4.02016 51.761 4.13058C51.8045 4.25553 51.9179 4.33108 51.9034 4.48799C51.8946 4.60713 51.8278 4.67978 51.7987 4.79601C51.7522 4.96164 51.8074 5.27546 51.6854 5.40041C51.5837 5.4963 51.3745 5.47887 51.2379 5.50793C51.0927 5.55442 50.9444 5.60091 50.7933 5.6474C50.5667 5.68518 50.2674 5.65903 50.032 5.66193C49.8431 5.66775 49.6107 5.61835 49.4799 5.7433C49.3869 5.82466 49.3753 5.96414 49.3259 6.06874C49.2126 6.32736 49.0644 6.57726 48.9888 6.85331C48.9685 6.96663 48.9452 7.08286 48.9278 7.19619C48.8813 7.34148 48.7796 7.42284 48.7302 7.56232C48.6924 7.7018 48.6576 7.84709 48.6169 7.98657C48.5152 8.26843 48.3786 8.55029 48.2217 8.81472C48.1636 8.91932 48.1897 9.08495 48.0764 9.15469C47.905 9.2564 47.5795 9.18956 47.379 9.23024C47.2308 9.29417 47.0855 9.34357 46.9344 9.40168C46.6468 9.45399 46.4666 9.21571 46.2283 9.14597C46.1528 9.12854 46.0714 9.1082 45.993 9.08786C45.9029 9.0588 45.5949 8.85249 45.5716 8.77985C45.5077 8.6084 45.5455 8.34107 45.5484 8.1551C45.5571 7.91973 45.5077 7.64659 45.5687 7.42284C45.5978 7.28046 45.7053 7.17004 45.7576 7.03347C45.836 6.76904 45.9116 6.50752 45.993 6.246C46.0569 6.01644 46.2167 5.72296 46.1528 5.45562C46.1383 5.39751 46.1121 5.3452 46.0598 5.31905C45.929 5.2435 45.7169 5.27256 45.5716 5.2435C45.4322 5.22316 45.3363 5.13308 45.2084 5.08078C45.0864 5.03428 44.9498 5.03428 44.8539 4.93839C44.7232 4.81344 44.5342 4.61585 44.4703 4.45022C44.3541 4.15092 44.2902 3.43901 44.4732 3.16005C44.6331 2.91596 45.2607 2.6835 45.5716 2.6835C45.8215 2.51496 46.4666 2.62829 46.8066 2.62829C46.8821 2.59342 46.978 2.59633 47.0507 2.54402C47.1495 2.45394 47.1814 2.33481 47.257 2.22729C47.3848 2.082 47.5127 1.94252 47.6406 1.79724C47.8207 1.56477 47.9718 1.28872 48.2391 1.14343C48.3815 1.06207 48.5616 1.06207 48.7244 1.00977Z" fill="#008CD6"/>
<path fill-rule="evenodd" clip-rule="evenodd" d="M129.912 0.964844C130.115 0.964844 130.322 0.964844 130.508 0.999713C131.001 1.11594 131.49 1.4966 131.655 1.97896C131.748 2.26664 131.757 2.60371 131.772 2.93787C131.792 3.05411 131.803 3.17615 131.818 3.29238C131.812 3.56262 131.652 4.17574 131.824 4.41692C131.879 4.48957 131.94 4.50991 132.01 4.55931C132.379 4.84407 132.762 4.79467 133.277 4.79467C133.486 4.71622 134.224 4.90219 134.43 4.95159C134.581 4.96902 134.738 4.98936 134.889 5.0097C135.023 5.01551 135.174 5.00099 135.29 5.04167C135.401 5.07363 135.453 5.18696 135.54 5.26832C135.601 5.32353 135.674 5.37583 135.738 5.42523C135.799 5.50078 135.822 5.59958 135.848 5.69547C136.002 6.12262 135.965 6.27953 135.68 6.62532C135.038 7.43604 133.736 7.37792 132.73 7.28203C132.507 7.26169 132.135 7.09606 131.925 7.17742C131.731 7.24425 131.789 7.49706 131.76 7.66559C131.731 7.80507 131.702 7.93874 131.676 8.07822C131.629 8.34846 131.641 8.64775 131.655 8.92961C131.658 9.2725 131.617 9.61828 131.676 9.96117C131.705 10.1471 131.824 10.3622 131.949 10.5016C132.021 10.5656 132.097 10.6237 132.172 10.6905C132.236 10.7515 132.292 10.83 132.37 10.8736C132.495 10.9259 132.62 10.9724 132.748 11.0189C132.847 11.077 132.887 11.2019 133.009 11.2368C133.175 11.2978 133.37 11.2804 133.55 11.3269C133.806 11.3937 134.07 11.51 134.343 11.5158C134.488 11.5216 134.663 11.5216 134.799 11.478C134.915 11.4431 135.009 11.3472 135.133 11.3007C135.29 11.2542 135.886 11.3007 136.031 11.353C136.153 11.4257 136.27 11.4925 136.389 11.5652C136.639 11.7017 136.618 11.8151 136.746 12.033C136.828 12.1696 137.008 12.1986 137.063 12.3526C137.127 12.5154 137.101 12.9512 137.028 13.0994C136.95 13.2767 136.595 13.6167 136.424 13.6777C136.238 13.7416 135.933 13.7242 135.738 13.7503C135.526 13.7765 135.325 13.8491 135.107 13.8607C134.837 13.8782 134.549 13.7852 134.285 13.7532C134.087 13.7329 133.887 13.7213 133.686 13.7067C133.442 13.666 133.198 13.6312 132.948 13.5905C132.791 13.5295 132.637 13.4714 132.475 13.4045C132.254 13.3319 132.018 13.3115 131.801 13.2389C131.652 13.1924 131.553 13.1227 131.42 13.0558C131.347 13.0297 131.28 13.0064 131.211 12.9832C131.103 12.928 131.001 12.8699 130.897 12.8147C130.67 12.7013 130.412 12.6142 130.199 12.4689C130.08 12.3846 130.013 12.2684 129.9 12.1638C129.83 12.1027 129.755 12.0417 129.682 11.9778C129.607 11.8877 129.534 11.7976 129.458 11.7075C129.342 11.6175 129.252 11.4983 129.133 11.4083C129.055 11.3472 128.924 11.2978 128.871 11.2078C128.787 11.0654 128.796 10.8503 128.747 10.6876C128.659 10.397 128.558 10.0571 128.537 9.74324C128.537 9.59795 128.543 9.44975 128.546 9.30737C128.534 9.19114 128.523 9.0749 128.508 8.95867C128.517 8.7233 128.569 8.53733 128.593 8.32521C128.593 7.94455 128.593 7.55808 128.604 7.18033C128.604 6.84035 128.61 6.50038 128.61 6.16621C128.633 6.02964 128.656 5.89016 128.677 5.75068C128.677 5.59086 128.686 5.42523 128.688 5.2596C128.723 4.93706 128.758 4.62323 128.787 4.30069C128.805 4.03045 128.738 3.76312 128.718 3.50741C128.7 3.29529 128.72 3.03667 128.726 2.82746C128.735 2.66473 128.72 2.51944 128.749 2.35963C128.776 2.22596 128.837 2.10973 128.883 1.98478C128.915 1.88017 128.918 1.75232 128.976 1.66224C129.06 1.57216 129.148 1.48208 129.235 1.38619C129.302 1.29901 129.319 1.17697 129.427 1.11304C129.572 1.02006 129.746 1.01134 129.915 0.964846L129.912 0.964844Z" fill="#008CD6"/>
<path fill-rule="evenodd" clip-rule="evenodd" d="M67.879 1.39834C68.2567 1.39834 68.3439 1.47099 68.6287 1.63371C68.7275 1.68892 68.8263 1.74994 68.928 1.79934C69.0093 1.8807 69.0326 2.01437 69.1517 2.05505C69.3581 2.13932 69.7213 2.08702 69.9567 2.12188C70.2821 2.16257 70.8458 2.31367 71.1248 2.45896C71.2556 2.52288 71.3601 2.63621 71.4735 2.7292C71.5403 2.78731 71.6275 2.8309 71.6769 2.90935C71.7553 3.0314 71.735 3.28711 71.6943 3.42658C71.6507 3.57187 71.4182 4.06876 71.2846 4.13269C71.1858 4.16465 71.0841 4.19952 70.9853 4.22858C70.8574 4.30123 70.7819 4.42036 70.6366 4.46105C70.2472 4.58599 69.3842 4.40874 69.2883 4.92888C69.2563 5.17006 69.2186 5.41996 69.1866 5.66404C69.143 5.91685 69.0413 6.16965 69.0122 6.43408C68.9745 6.80311 68.9977 7.15471 68.9396 7.50341C68.8583 7.96543 68.774 8.43616 68.6926 8.89818C68.6229 9.33115 68.6374 9.7612 68.5474 10.1796C68.527 10.2901 68.4485 10.3424 68.3933 10.4412C68.3526 10.5341 68.312 10.6329 68.2684 10.7317C68.248 10.8276 68.2219 10.9293 68.1986 11.0281C68.1579 11.1676 68.0911 11.2955 68.0563 11.4408C68.0359 11.5541 68.0214 11.6703 67.9981 11.7865C67.9487 11.9493 67.8557 12.0742 67.8005 12.2311C67.7831 12.3474 67.7628 12.4636 67.7482 12.5798C67.7047 12.7222 67.6 12.8094 67.5506 12.943C67.4984 13.0941 67.446 13.2365 67.3967 13.3789C67.3676 13.4951 67.3415 13.6143 67.3153 13.7276C67.2572 13.8119 67.202 13.8961 67.1438 13.9833C67.0683 14.146 67.0479 14.3843 66.8998 14.5005C66.8213 14.5674 66.6934 14.547 66.5947 14.5674C66.1908 14.6429 65.7839 14.7069 65.3335 14.701C65.0749 14.6923 64.8977 14.5848 64.7321 14.4192C64.5809 14.2623 64.4705 14.1257 64.424 13.9194C64.3746 13.7102 64.4386 13.4864 64.4793 13.2946C64.5519 12.9314 64.6594 12.6263 64.7117 12.2544C64.7321 12.1062 64.8512 11.9987 64.9064 11.8679C64.9587 11.7342 64.9325 11.5715 64.9819 11.4349C65.0372 11.3274 65.0953 11.2141 65.1447 11.1037C65.2405 10.7753 65.2405 10.4295 65.3103 10.0954C65.4004 9.88615 65.4846 9.67403 65.566 9.4619C65.6183 9.24397 65.5747 8.97083 65.6096 8.7558C65.6386 8.65119 65.6735 8.55239 65.6997 8.44779C65.7549 8.1543 65.813 7.86663 65.8653 7.57024C65.935 7.0501 65.906 6.54159 65.906 6.01564C65.906 5.66404 66.0048 5.32406 65.9379 4.97537C65.8885 4.67026 65.0372 4.71094 64.7611 4.67317C64.6274 4.65282 64.5344 4.54531 64.4182 4.49882C64.3049 4.47557 64.1887 4.44651 64.0782 4.41746C63.9562 4.35062 63.962 4.21986 63.8807 4.12397C63.8138 4.06295 63.747 4.00774 63.6743 3.94962C63.6307 3.89151 63.4448 3.40624 63.4361 3.33069C63.4186 3.20284 63.4826 3.06626 63.5058 2.94713C63.5407 2.81637 63.5494 2.68561 63.6133 2.57228C63.7441 2.32238 64.1799 2.30785 64.4211 2.2294C64.6245 2.16256 64.7495 2.04633 64.9994 2.04633C65.1389 1.98531 65.4817 2.04633 65.6561 2.04633C65.8304 1.97369 66.121 2.04633 66.3099 2.04633C66.4697 1.96497 66.6498 1.98241 66.801 1.89233C66.9928 1.74122 67.1991 1.59594 67.3938 1.44774C67.5564 1.43031 67.7134 1.40997 67.8732 1.38672L67.879 1.39834Z" fill="#008CD6"/>
<path fill-rule="evenodd" clip-rule="evenodd" d="M81.031 1.83103C81.3012 1.83103 81.5627 1.86009 81.8213 1.86009C81.984 1.79616 82.5391 1.88334 82.6698 1.95889C82.94 2.13033 83.219 2.38023 83.3207 2.67952C83.3614 2.80157 83.3527 2.9672 83.3527 3.11539C83.3527 3.45246 83.3323 3.80697 83.3323 4.12661C83.3323 4.44624 83.4428 4.77169 83.4805 5.08842C83.5067 5.3296 83.4428 5.61728 83.5096 5.84393C83.5241 5.87298 83.5444 5.90495 83.5648 5.93691C83.6607 5.99503 83.7624 6.05605 83.8582 6.11126C83.9803 6.19262 84.0791 6.32629 84.2244 6.36697C84.3261 6.36697 84.4278 6.36697 84.5237 6.36697C84.6428 6.31757 84.8317 6.36697 84.9654 6.36697C85.0671 6.33791 85.1629 6.30885 85.2676 6.27979C85.5552 6.18681 85.7674 6.06767 86.1161 6.06767C86.241 6.00956 86.52 6.02699 86.6333 6.09963C86.6827 6.14903 86.7351 6.19553 86.7902 6.24202C86.9646 6.36406 87.1738 6.40474 87.3395 6.57037C87.4179 6.64011 87.4208 6.736 87.4411 6.83189C87.5313 7.26195 87.4615 7.32879 87.3423 7.70654C87.3191 7.80533 87.29 7.90122 87.2668 7.99421C87.1767 8.16274 86.9907 8.18018 86.8396 8.24992C86.6856 8.31094 86.581 8.43008 86.4212 8.48529C86.1423 8.53469 85.8603 8.58118 85.5814 8.63058C85.4536 8.67707 85.163 8.80783 85.0671 8.90663C85.0061 8.97927 84.948 9.05482 84.887 9.13328C84.823 9.17687 84.762 9.22626 84.7009 9.27566C84.4656 9.46744 84.3028 9.70572 84.1866 9.96143C84.0908 10.1706 83.9891 10.467 83.992 10.7169C83.9978 10.8274 84.0385 10.8826 84.0791 10.9726C84.236 11.333 84.5499 11.4841 84.9683 11.4841C85.0874 11.4637 85.2066 11.4463 85.3228 11.4259C85.564 11.3417 85.7906 11.2719 86.0637 11.2284C86.1858 11.208 86.2875 11.1644 86.4212 11.1644C86.5693 11.1644 86.6972 11.208 86.8338 11.2371C86.9442 11.2574 87.0837 11.2719 87.1621 11.3475C87.2726 11.4434 87.3162 11.6235 87.3598 11.7572C87.4237 11.9461 87.4615 12.2163 87.383 12.4197C87.2813 12.6754 87.1302 12.7975 86.9878 13.027C86.9181 13.1404 86.8803 13.3002 86.7612 13.3786C86.642 13.4484 86.4735 13.4484 86.3457 13.4949C86.1887 13.5472 86.0259 13.6053 85.8691 13.6576C85.6308 13.7099 85.3489 13.7012 85.0816 13.7012C84.8346 13.7041 84.5847 13.7128 84.3406 13.7215C84.0908 13.7012 83.835 13.614 83.5939 13.5501C83.3933 13.4949 83.1987 13.4803 83.004 13.4077C82.7831 13.306 82.5652 13.1956 82.3502 13.0939C82.2398 13.0009 82.2223 12.873 82.1119 12.7917C81.9695 12.6783 81.7632 12.5795 81.6557 12.4401C81.5191 12.257 81.4726 12.01 81.3476 11.8124C81.2547 11.6671 81.0716 11.6177 81.0136 11.455C80.9496 11.269 80.9699 11.0366 80.9699 10.8274C80.9699 10.406 80.9496 9.97886 81.0803 9.62726C81.1501 9.4442 81.2227 9.26694 81.2954 9.0926C81.3884 8.9938 81.4843 8.8921 81.5772 8.79039C81.6441 8.69741 81.9898 8.00874 81.9724 7.939C81.9114 7.71525 81.6906 7.63098 81.5249 7.52638C81.3854 7.43049 81.2488 7.32878 81.1181 7.22999C80.9815 7.11085 80.8566 6.86967 80.7636 6.71566C80.7026 6.58199 80.6357 6.44833 80.5776 6.31466C80.534 6.21877 80.4585 6.14613 80.441 6.03571C80.3714 5.69864 80.4352 5.34994 80.4207 4.99834C80.3859 4.78331 80.3568 4.55666 80.3219 4.34163C80.3219 4.24283 80.3219 4.14404 80.3219 4.03943C80.3045 3.83312 80.2725 3.63843 80.2667 3.44084C80.2667 3.33914 80.2696 3.24324 80.2784 3.14154C80.2667 2.91489 80.2115 2.70567 80.3045 2.49355C80.3655 2.34536 80.4934 2.28724 80.6067 2.19716C80.7607 2.07512 80.8682 1.93564 81.031 1.82812V1.83103Z" fill="#008CD6"/>
<path fill-rule="evenodd" clip-rule="evenodd" d="M55.6693 1.99705C56.05 1.99705 56.2359 2.10747 56.5207 2.26438C56.6311 2.31668 56.7386 2.3748 56.8491 2.4271C56.9304 2.49394 57.0147 2.55496 57.0931 2.61889C57.2762 2.74093 57.497 2.79904 57.6801 2.91818C57.9039 3.06056 58.2845 3.69112 58.2613 3.96136C58.2497 4.12699 58.1537 4.25194 58.0957 4.39142C58.0259 4.54833 57.9794 4.81276 57.8341 4.91736C57.7121 4.99582 57.5464 4.9377 57.3983 4.96967C57.2239 5.00163 57.0844 5.15854 56.8839 5.12077C56.7212 5.07718 56.6486 4.95514 56.5091 4.8883C56.3434 4.80404 56.0296 4.79241 55.8379 4.72268C55.6984 4.66747 55.6199 4.52508 55.495 4.45244C55.094 4.21997 54.3675 4.07469 54.1467 3.60685C54.0682 3.43832 54.0363 3.06347 54.1118 2.87169C54.1845 2.677 54.5767 2.20626 54.7743 2.1249C54.8702 2.07841 54.9836 2.07841 55.1027 2.07841C55.2131 2.03192 55.373 2.05226 55.5095 2.05226C55.5647 2.02901 55.617 2.01448 55.6722 1.99414L55.6693 1.99705Z" fill="#008CD6"/>
<path fill-rule="evenodd" clip-rule="evenodd" d="M147.094 1.66406C147.257 1.66406 147.42 1.67569 147.582 1.67569C147.713 1.71056 147.844 1.75124 147.972 1.79192C148.12 1.82679 148.312 1.86747 148.425 1.97208C148.573 2.10284 148.704 2.43119 148.777 2.61716C148.817 2.72468 148.916 2.80604 148.936 2.92518C148.954 3.02107 148.936 3.12567 148.931 3.22447C148.907 3.66615 148.768 4.02356 148.698 4.43038C148.666 4.75873 148.631 5.08708 148.593 5.40962C148.556 5.68567 148.518 5.95882 148.477 6.22906C148.445 6.36563 148.416 6.50511 148.384 6.64458C148.344 6.98166 148.355 7.33616 148.315 7.67905C148.268 8.07423 148.216 8.45489 148.181 8.8646C148.172 9.03314 148.158 9.20458 148.152 9.37893C148.178 9.57071 148.361 10.1228 148.466 10.3059C148.547 10.4395 148.71 11.0004 148.71 11.0992C148.71 11.3752 148.977 11.6338 148.922 11.8285C148.887 11.9244 149.015 12.3951 148.878 12.43C148.753 12.5462 148.692 12.6596 148.506 12.7555C148.251 12.8804 148.187 13.1506 147.946 13.0664C147.847 13.0141 147.751 12.9618 147.652 12.9066C147.524 12.8862 147.393 12.8659 147.263 12.8368C147.091 12.7903 146.853 12.616 146.708 12.4997C146.562 12.3951 146.394 12.369 146.249 12.2498C146.17 12.1859 146.141 12.1017 146.092 12.0232C145.932 11.7762 145.76 11.5699 145.653 11.3084C145.56 11.0788 145.368 10.9103 145.301 10.6662C145.237 10.4192 145.293 10.0589 145.278 9.79446C145.266 9.5649 145.191 9.3615 145.182 9.14066C145.15 8.45198 145.324 7.79528 145.383 7.14147C145.415 6.83637 145.388 6.53126 145.426 6.24068C145.464 5.98787 145.574 5.78156 145.603 5.52295C145.612 5.35441 145.621 5.18297 145.635 5.00862C145.659 4.90983 145.682 4.80522 145.708 4.70352C145.749 4.46234 145.789 4.19791 145.816 3.96545C145.839 3.7388 145.853 3.51214 145.865 3.28259C145.914 3.11696 145.961 2.95133 146.01 2.7886C146.051 2.61425 146.033 2.40504 146.127 2.25684C146.19 2.19292 146.26 2.12608 146.327 2.05925C146.405 1.99242 146.478 1.92558 146.554 1.85584C146.719 1.76576 146.914 1.7338 147.091 1.66987L147.094 1.66406Z" fill="#008CD6"/>
<path fill-rule="evenodd" clip-rule="evenodd" d="M101.517 2.81641C101.842 2.81641 102.107 2.89777 102.4 2.9646C102.569 2.98204 102.737 2.99656 102.911 3.01691C103.158 3.0634 103.403 3.11571 103.655 3.1622C103.85 3.18544 104.077 3.15348 104.28 3.17963C105.088 3.30167 105.907 3.45859 106.686 3.64456C106.962 3.71139 107.261 3.7172 107.561 3.7172C107.741 3.7172 107.947 3.69396 108.101 3.74045C108.209 3.77532 108.264 3.85087 108.357 3.90608C108.444 3.9642 108.552 3.97291 108.627 4.04846C108.685 4.13273 108.752 4.21409 108.81 4.30417C109.025 4.49014 109.179 4.55697 109.301 4.84465C109.394 5.06549 109.269 5.36769 109.264 5.60887C109.258 5.83552 109.255 6.06217 109.252 6.29464C109.24 6.41087 109.226 6.53001 109.205 6.64624C109.226 6.92519 109.246 7.19543 109.261 7.46858C109.269 7.84923 109.24 8.2357 109.298 8.59021C109.33 8.74422 109.368 8.90113 109.388 9.06095C109.394 9.34281 109.4 9.62176 109.406 9.90363C109.449 10.3221 109.572 10.6998 109.612 11.1124C109.63 11.3187 109.603 11.5628 109.603 11.7691C109.603 11.9813 109.603 12.3067 109.487 12.4665C109.426 12.5305 109.368 12.5944 109.301 12.6554C109.243 12.7339 109.179 12.8065 109.115 12.8763C108.892 13.0361 108.403 13.0157 108.116 13.0651C107.985 13.1029 107.854 13.1349 107.726 13.1755C107.572 13.1872 107.5 13.1 107.381 13.0564C107.311 13.0419 107.247 13.0303 107.18 13.0157C107.009 12.9838 106.831 13.0215 106.663 13.0157C106.32 13.0012 105.997 12.9256 105.678 12.8763C105.227 12.8007 104.73 12.9024 104.28 12.8763C104.17 12.8588 104.065 12.8385 103.952 12.8239C103.806 12.8356 103.658 12.8559 103.516 12.8763C103.094 12.9024 102.609 12.8065 102.295 12.5944C102.109 12.4782 102.109 12.3009 102.019 12.1324C101.787 11.6733 101.508 11.4553 101.839 10.9439C101.932 10.7928 102.031 10.7027 102.226 10.7027C102.432 10.5749 102.632 10.4092 102.882 10.3831C103.06 10.3889 103.231 10.3976 103.408 10.4005C103.841 10.4092 104.234 10.4557 104.64 10.4819C104.774 10.4877 104.913 10.4877 105.044 10.4906C105.346 10.5197 105.657 10.6533 105.977 10.6068C106.111 10.5836 106.23 10.4935 106.279 10.3744C106.361 10.1884 106.209 9.86295 106.186 9.65954C106.186 9.39221 106.18 9.11326 106.178 8.84302C106.183 8.7355 106.186 8.62218 106.195 8.51466C106.186 8.20955 106.111 7.89863 106.05 7.61096C106.032 7.34653 106.012 7.08211 105.989 6.81768C105.974 6.57359 106.154 6.31207 106.044 6.09124C106.035 6.07089 106.026 6.05927 106.015 6.04474C105.84 5.83553 104.852 5.90526 104.53 5.88202C104.347 5.8733 104.251 5.75997 104.088 5.70186C103.891 5.67571 103.687 5.64665 103.49 5.6234C103.289 5.60887 103.092 5.60306 102.885 5.59434C102.612 5.60015 102.333 5.64374 102.04 5.60306C101.874 5.57981 101.676 5.55657 101.534 5.48392C101.421 5.41418 101.305 5.33863 101.191 5.26308C101.101 5.22531 101.014 5.19625 100.927 5.15847C100.613 4.98994 100.285 4.75748 100.157 4.40588C100.011 4.02812 100.232 3.66199 100.43 3.37432C100.5 3.27552 100.546 3.15639 100.659 3.09246C100.755 3.03725 100.88 3.04306 101.002 3.04306C101.177 2.97041 101.348 2.90068 101.52 2.82513L101.517 2.81641Z" fill="#008CD6"/>
<path fill-rule="evenodd" clip-rule="evenodd" d="M153.69 4.18455C153.989 4.18455 154.268 4.263 154.539 4.30659C154.725 4.31531 154.902 4.32112 155.085 4.32112C155.222 4.27753 155.379 4.37052 155.527 4.37052C155.884 4.39086 156.204 4.41701 156.515 4.53615C156.703 4.63494 156.898 4.72793 157.093 4.82673C157.235 4.88775 157.442 4.93133 157.561 5.04757C157.7 5.17542 157.866 5.55317 157.898 5.74786C157.918 5.87862 157.973 6.03263 157.93 6.17211C157.872 6.25928 157.816 6.35227 157.755 6.43654C157.68 6.57892 157.625 6.83172 157.456 6.89565C157.296 6.91599 157.134 6.93923 156.977 6.95667C156.785 6.98863 156.593 7.05256 156.378 7.01188C156.029 6.94214 155.73 6.79395 155.361 6.77942C155.102 6.77942 154.832 6.79104 154.594 6.80266C154.332 6.81719 154.085 6.80266 153.824 6.81138C153.559 6.84915 153.298 6.87821 153.028 6.91889C152.615 6.92761 151.848 6.77942 151.531 6.57601C151.386 6.48303 151.305 6.35517 151.209 6.21569C151.107 6.07622 150.997 5.99195 150.944 5.82632C150.81 5.39626 151.02 5.065 151.299 4.77733C151.409 4.664 151.52 4.55358 151.671 4.50709C151.796 4.4635 151.961 4.48384 152.101 4.48384C152.292 4.36761 152.563 4.36761 152.813 4.36761C152.903 4.32402 153.036 4.31821 153.144 4.31821C153.214 4.30949 153.292 4.29787 153.359 4.29206C153.443 4.24848 153.588 4.2107 153.69 4.2107V4.18164V4.18455Z" fill="#008CD6"/>
<path fill-rule="evenodd" clip-rule="evenodd" d="M116.127 4.28906C116.391 4.29778 116.571 4.39658 116.816 4.44307C116.978 4.46631 117.141 4.48956 117.304 4.51281C117.443 4.57092 117.516 4.72202 117.661 4.78305C117.774 4.8092 117.885 4.84116 117.99 4.86441C118.173 4.93705 118.315 5.0591 118.507 5.12302C118.635 5.15789 118.783 5.16951 118.89 5.22763C119.036 5.30899 119.152 5.5124 119.271 5.63735C119.39 5.7623 119.582 5.84657 119.66 6.00348C119.698 6.08193 119.689 6.16911 119.689 6.25918C119.675 6.64565 119.55 6.93333 119.315 7.19775C119.213 7.29946 119.059 7.27912 118.931 7.32561C118.838 7.38373 118.736 7.44184 118.64 7.49705C118.42 7.56098 118.077 7.47962 117.888 7.39535C117.821 7.35176 117.751 7.31108 117.679 7.26459C117.522 7.22972 117.353 7.18904 117.19 7.15126C116.827 7.06409 116.409 7.10477 116.048 7.01178C115.9 6.97401 115.801 6.84906 115.668 6.77642C115.554 6.72992 115.435 6.68634 115.319 6.63694C114.947 6.44516 114.72 6.07612 114.645 5.68674C114.613 5.50949 114.569 5.29447 114.645 5.12302C114.712 4.96321 114.84 4.88184 114.97 4.79467C115.069 4.73365 115.165 4.66972 115.264 4.6087C115.551 4.47503 115.865 4.4605 116.13 4.29197L116.127 4.28906Z" fill="#008CD6"/>
<path fill-rule="evenodd" clip-rule="evenodd" d="M72.1481 7.12695C72.2585 7.1502 72.3689 7.17054 72.4793 7.19378C72.8687 7.27515 73.2319 7.27805 73.5748 7.44659C73.662 7.50471 73.7462 7.55991 73.8305 7.62384C73.9497 7.6529 74.0659 7.68486 74.185 7.71973C74.2809 7.78656 74.3739 7.8563 74.4698 7.92605C74.5686 7.96672 74.6645 8.01031 74.7604 8.051C74.8359 8.12073 74.9085 8.19047 74.9783 8.25149C75.0538 8.28346 75.1265 8.30961 75.2049 8.34447C75.3212 8.42003 75.4374 8.49558 75.5537 8.56532C75.8762 8.79778 75.85 9.3615 75.6379 9.65789C75.5101 9.83805 75.3938 9.86711 75.1875 9.93394C75.0829 9.96881 74.9986 10.0705 74.8795 10.0996C74.4873 10.1809 74.0601 10.0037 73.7027 9.92813C73.4499 9.87873 73.1796 9.89036 72.9472 9.78865C72.8019 9.73054 72.7728 9.57362 72.6391 9.50679C72.5374 9.48064 72.4415 9.44868 72.3427 9.41671C72.2353 9.3615 72.1306 9.30629 72.0231 9.25399C71.9127 9.22202 71.8052 9.19297 71.6919 9.1581C71.5117 9.07964 71.1252 8.71642 71.0264 8.54788C70.9683 8.44909 70.9683 8.32123 70.9683 8.19047C70.9683 8.08296 70.9625 7.96672 70.9887 7.87664C71.0846 7.57735 71.596 7.34779 71.8604 7.24609C71.9505 7.21121 72.0405 7.1531 72.1423 7.1531V7.12695H72.1481Z" fill="#008CD6"/>
<path fill-rule="evenodd" clip-rule="evenodd" d="M122.639 7.60352C123.906 7.60352 124.417 8.71643 123.647 9.67534C123.574 9.75961 123.481 9.77995 123.388 9.82935C123.159 9.96592 122.921 10.0967 122.688 10.2245C122.63 10.2739 122.572 10.3204 122.517 10.3727C122.429 10.4367 122.342 10.4919 122.258 10.5529C122.194 10.6226 122.159 10.7214 122.081 10.7853C121.941 10.8987 121.735 10.9132 121.587 11.0091C121.331 11.1747 121.139 11.4101 120.889 11.5903C120.831 11.628 120.767 11.6542 120.709 11.689C120.23 12.0116 119.669 12.2789 119.105 12.4242C119.027 12.43 118.948 12.4475 118.873 12.4591C118.757 12.4852 118.646 12.5172 118.539 12.5463C118.361 12.5463 118.19 12.555 118.018 12.5579C117.789 12.5666 117.539 12.5928 117.333 12.5288C117.158 12.4736 117.022 12.3545 116.862 12.2876C116.728 12.2382 116.58 12.2121 116.464 12.1307C116.391 12.0523 116.316 11.9854 116.252 11.9128C116.176 11.8605 116.104 11.8053 116.022 11.7472C115.755 11.4362 115.801 11.0469 115.921 10.6691C115.947 10.5529 115.97 10.4279 116.048 10.3437C116.214 10.178 116.583 10.0386 116.839 10.0386C116.908 10.0269 116.984 10.0153 117.06 10.0153C117.153 9.96592 117.324 9.98335 117.44 9.98335C117.559 9.93686 117.844 9.95138 117.984 9.95138C118.158 9.87003 118.379 9.89617 118.55 9.80319C118.675 9.71021 118.797 9.62013 118.919 9.52714C119.262 9.29177 119.649 9.07675 119.997 8.84719C120.096 8.77164 120.189 8.69028 120.285 8.61473C120.416 8.53336 120.555 8.50431 120.686 8.44038C120.852 8.35901 121.017 8.27765 121.18 8.19629C121.5 8.01613 121.578 7.71684 122.011 7.71684C122.081 7.70521 122.153 7.70231 122.229 7.69068C122.302 7.67906 122.374 7.67325 122.447 7.66453C122.517 7.6471 122.572 7.62966 122.639 7.61223V7.60352Z" fill="#008CD6"/>
<path fill-rule="evenodd" clip-rule="evenodd" d="M152.699 9.74219C153.242 9.74219 153.765 9.85261 154.166 10.1432C154.268 10.2216 154.303 10.3263 154.384 10.4163C154.547 10.5151 154.704 10.6226 154.867 10.7185C155.038 10.797 155.239 10.8638 155.436 10.8871C155.634 10.919 155.832 10.9481 156.023 10.9742C156.372 11.0934 156.628 11.5263 156.665 11.8808C156.683 12.0494 156.724 12.276 156.628 12.4213C156.479 12.6393 156.232 12.9182 155.974 12.9909C155.814 13.0083 155.648 13.0257 155.491 13.0432C155.059 13.1187 154.596 13.1594 154.146 13.0839C153.983 13.0519 153.824 12.9473 153.675 12.8775C153.521 12.8223 153.376 12.7671 153.228 12.7119C153.129 12.6393 153.033 12.5724 152.937 12.4998C152.493 12.2441 152.159 11.9622 151.929 11.4944C151.842 11.3142 151.691 11.1108 151.731 10.8725C151.822 10.3408 152.283 10.0299 152.696 9.74219H152.699Z" fill="#008CD6"/>
<path fill-rule="evenodd" clip-rule="evenodd" d="M72.5316 10.5977C72.8919 10.5977 73.1302 10.6761 73.4324 10.7517C73.6852 10.8098 73.938 10.8446 74.1414 10.9841C74.2199 11.0393 74.2722 11.1381 74.3215 11.2137C74.4174 11.3415 74.5598 11.4461 74.6935 11.5246C74.8214 11.5972 74.9579 11.6176 75.1003 11.6699C75.1846 11.7164 75.2747 11.7658 75.359 11.8094C75.4403 11.8413 75.5246 11.882 75.6059 11.9111C75.696 11.9605 75.7483 12.097 75.7803 12.1842C75.8151 12.2859 75.8994 12.3934 75.8907 12.5126C75.8791 12.6927 75.5798 13.0705 75.4432 13.2158C75.3357 13.3349 75.2194 13.3436 75.0742 13.3988C74.9347 13.4482 74.8475 13.5528 74.6906 13.5674C74.4698 13.579 74.2373 13.5267 74.0339 13.5064C73.8508 13.5064 73.6677 13.4947 73.4905 13.4831C73.1912 13.4569 72.8541 13.332 72.5955 13.2071C72.4938 13.1518 72.3979 13.0908 72.2991 13.0298C72.2003 12.992 72.0958 12.9455 71.9999 12.9048C71.9272 12.8351 71.8487 12.7683 71.779 12.6985C71.6977 12.6375 71.5872 12.5939 71.5204 12.5184C71.4071 12.3818 71.3984 12.1784 71.3693 12.0011C71.3228 11.7164 71.3838 11.1672 71.5814 10.9783C71.6715 10.8911 71.7906 10.8679 71.8952 10.8156C72.1016 10.7139 72.1713 10.6587 72.4444 10.6587C72.4735 10.6441 72.5025 10.6238 72.5287 10.6064L72.5316 10.5977Z" fill="#008CD6"/>
<path fill-rule="evenodd" clip-rule="evenodd" d="M94.3364 11.0224C94.9524 11.0457 95.6964 11.8186 95.8765 12.3707C95.9288 12.5305 95.8939 12.731 95.9404 12.9054C95.9608 12.9867 96.0246 13.0391 96.0683 13.1117C96.1641 13.2773 96.2775 13.5941 96.1874 13.8091C96.138 13.9253 96.0246 14.0067 95.9666 14.1229C95.8823 14.274 95.7923 14.46 95.6091 14.5297C95.3825 14.6024 95.0861 14.5791 94.8246 14.5791C94.5631 14.5791 94.2493 14.5966 94.04 14.4832C93.9122 14.3815 93.7902 14.2856 93.6623 14.181C93.5053 14.0677 93.3514 13.9893 93.2409 13.8062C93.0869 13.533 93.023 13.2425 92.9271 12.9403C92.8342 12.6758 92.6714 12.4259 92.6714 12.115C92.6656 11.6385 93.2148 11.2607 93.5925 11.13C93.6942 11.0893 93.8279 11.1038 93.95 11.1038C94.0081 11.0893 94.0604 11.0864 94.1127 11.0747C94.1853 11.0544 94.2609 11.0428 94.3335 11.0195L94.3364 11.0224Z" fill="#008CD6"/>
<path fill-rule="evenodd" clip-rule="evenodd" d="M162.277 11.2488C162.881 11.5277 163.212 11.5568 163.482 12.1002C163.558 12.2629 163.866 12.5564 163.936 12.7307C163.968 12.8092 164.04 12.8615 164.093 12.9283C164.215 13.0823 164.38 13.3961 164.331 13.6344C164.293 13.7623 164.194 13.864 164.151 13.9947C164.093 14.1633 163.776 14.512 163.602 14.602C163.389 14.7125 163.328 14.7183 163.07 14.756C162.805 14.7938 162.619 14.7996 162.399 14.7095C162.259 14.6282 162.201 14.512 162.059 14.4277C162.041 14.1836 161.803 13.9947 161.669 13.8204C161.474 13.5618 161.286 13.4194 161.126 13.123C160.992 12.8557 160.632 12.7307 160.58 12.4053C160.495 11.9142 160.975 11.4376 161.329 11.2371C161.425 11.1848 161.565 11.179 161.681 11.1616C161.733 11.1412 161.785 11.1238 161.841 11.1064C161.907 11.0773 162.204 11.2807 162.274 11.2517L162.277 11.2488Z" fill="#008CD6"/>
<path fill-rule="evenodd" clip-rule="evenodd" d="M40.8319 10.5442C40.7941 10.3001 40.7592 10.0589 40.7244 9.8119C40.675 9.62011 40.5529 9.48354 40.4919 9.30338C40.4803 9.22493 40.4687 9.14938 40.4512 9.07383C40.4018 8.96922 40.3524 8.86751 40.3031 8.76581C40.2682 8.66702 40.2275 8.56241 40.1897 8.46652C40.0793 8.3561 39.9718 8.24858 39.8585 8.14107C39.78 8.05389 39.7335 7.9551 39.6609 7.87373C39.5098 7.73426 39.3616 7.59187 39.2076 7.44949C38.9955 7.28677 38.6584 7.27224 38.545 7.002C38.3358 6.52254 38.7165 5.97625 38.7717 5.49971C38.7862 5.37766 38.6874 5.22947 38.6497 5.11905C38.609 4.97957 38.5683 4.843 38.5305 4.71224C38.4027 4.42747 38.1382 4.30252 37.8709 4.21825C37.6617 4.14561 37.2869 4.01485 37.0515 4.11074C36.9818 4.12236 36.9033 4.12817 36.8306 4.13689C36.4761 4.13689 36.2901 4.25312 36.1158 4.52045C36.0199 4.67156 35.9124 4.75582 35.8659 4.93308C35.8601 5.06093 35.8485 5.18879 35.8398 5.31373C35.8252 5.66824 35.8398 5.9007 35.587 6.12154C35.2993 6.12154 34.846 6.14479 34.6542 5.96173C34.6164 5.92395 34.4857 5.86874 34.4769 5.81934C34.4479 5.64499 34.3898 5.58979 34.3578 5.42415C34.3288 5.29049 34.2677 5.16845 34.2677 5.01444C34.2677 4.87787 34.2881 4.71805 34.2764 4.57857C34.2474 4.35773 34.2183 4.13689 34.1806 3.91896C34.1806 3.83759 34.1922 3.75914 34.2387 3.70974C34.3375 3.58188 34.814 3.63419 34.9651 3.60223C35.2412 3.54992 35.6422 3.50343 35.8601 3.33489C35.9502 3.23028 36.0374 3.12568 36.1245 3.02397C36.2291 2.91937 36.3308 2.84963 36.3919 2.71887C36.4442 2.60263 36.5052 2.19292 36.4413 2.0854C36.3715 1.99242 36.3047 1.89653 36.2408 1.80645C36.2088 1.71346 36.203 1.57398 36.1187 1.51006C35.9473 1.3822 34.875 1.20786 34.6397 1.31828C34.2358 1.31828 34.0992 1.20786 33.9452 0.870784C33.9103 0.786516 33.8958 0.679002 33.8377 0.609263C33.6837 0.437821 33.4919 0.356459 33.3088 0.248945C33.2507 0.205358 33.1868 0.161771 33.1287 0.12109C33.0211 0.0571631 32.8991 0.031011 32.7771 0.00195312C32.748 0.0164821 32.7189 0.0339168 32.6957 0.0542573C32.5562 0.0542573 32.4487 0.112373 32.3267 0.150148C32.1029 0.219887 31.8792 0.278003 31.7542 0.504655C31.7164 0.586017 31.6816 0.664473 31.6438 0.737118C31.577 0.847538 31.4985 0.917277 31.4549 1.04223C31.3852 1.24563 31.4259 1.46356 31.266 1.61757C31.144 1.74543 30.9174 1.74543 30.7517 1.79482C30.6558 1.85003 30.5629 1.89943 30.467 1.95464C30.0921 2.05344 29.511 2.0825 29.293 2.45153C29.2087 2.5852 29.2262 2.97167 29.2204 3.14602C29.2146 3.27097 29.2146 3.45403 29.2756 3.54992C29.4993 3.88699 30.3013 3.9887 30.7169 3.96254C30.9406 3.94511 31.3067 3.88409 31.4811 4.02647C31.5159 4.05553 31.5392 4.08749 31.545 4.13108C31.5537 4.22116 31.5537 4.31124 31.5537 4.39841C31.6322 4.95923 31.6874 5.51133 31.7339 6.09539C31.7426 6.20581 31.8007 6.52836 31.7804 6.60681C31.6816 6.98456 31.1673 6.94969 30.9261 7.1037C30.8273 7.19669 30.7343 7.29258 30.6384 7.38847C30.5193 7.46983 30.403 7.54538 30.281 7.63546C30.2083 7.69648 30.1618 7.79818 30.0718 7.8563C29.9061 7.96672 29.7434 8.02484 29.6126 8.19628C29.4993 8.38515 29.3831 8.57113 29.2698 8.7571C29.1564 8.8588 29.0402 8.96922 28.9327 9.07092C28.8949 9.18134 28.8484 9.28304 28.8048 9.39346C28.6537 9.7131 28.5985 10.0298 28.5201 10.3989C28.4765 10.5994 28.4155 10.8231 28.4242 11.0556C28.4387 11.3142 28.5085 11.5554 28.5695 11.8024C28.6305 12.0348 28.677 12.2469 28.8107 12.4445C28.8688 12.5375 28.9821 12.5724 29.0605 12.6334C29.1245 12.6973 29.1884 12.7613 29.2523 12.8194C29.4005 12.9414 29.6126 12.9937 29.7841 13.0693C30.1125 13.2088 30.4146 13.4209 30.7837 13.5022C31.2544 13.601 31.7426 13.4674 32.1727 13.386C32.4342 13.3541 32.6957 13.3192 32.9659 13.2843C33.2768 13.2233 33.6052 13.0954 33.8784 12.9443C33.9568 12.8659 34.044 12.7903 34.1224 12.7061C34.2706 12.6102 34.4159 12.5085 34.5641 12.4155C34.7443 12.3167 34.9361 12.2499 35.0872 12.1075C35.1889 12.0174 35.1976 11.8837 35.2877 11.7849C35.4678 11.6164 35.6422 11.4508 35.8252 11.288C35.9792 11.0934 36.1797 10.9568 36.3541 10.7737C36.4471 10.6749 36.5691 10.6342 36.6534 10.5267C36.7115 10.4221 36.7696 10.3117 36.8277 10.2071C36.9265 10.1025 37.0253 10.0008 37.127 9.90488C37.1909 9.83514 37.2026 9.71601 37.281 9.65498C37.3304 9.62012 37.3537 9.59687 37.4089 9.63174C37.5716 9.75378 37.6385 10.0531 37.7314 10.2274C37.7779 10.3088 37.8273 10.3989 37.8738 10.4831C37.9261 10.6197 37.9319 10.7853 37.961 10.9364C38.0017 11.1427 38.0394 11.3374 38.0801 11.5437C38.1208 12.1772 37.9174 12.7148 37.746 13.2465C37.682 13.4674 37.6123 13.694 37.5484 13.9178C37.4641 14.1473 37.2781 14.3536 37.2491 14.6123C37.2171 14.868 37.2636 15.2079 37.4147 15.391C37.4903 15.4549 37.56 15.5218 37.6356 15.5828C37.7082 15.6671 37.7314 15.7804 37.8419 15.8414C38.0511 15.9635 38.3126 16.0274 38.548 16.0913C38.7194 16.1378 38.9083 16.2046 39.0942 16.1843C39.1931 16.1785 39.2541 16.1349 39.3325 16.0681C39.4284 15.9838 39.4633 15.8617 39.5505 15.7659C39.6754 15.6206 39.8788 15.5595 39.9805 15.3852C40.1113 15.1731 40.1462 14.9174 40.2682 14.7023C40.3234 14.589 40.3961 14.4844 40.4251 14.3595C40.4542 14.2258 40.4629 14.0776 40.5036 13.9585C40.5617 13.8277 40.614 13.6998 40.6779 13.5662C40.7506 13.2117 40.7825 12.8572 40.861 12.5085C40.89 12.3516 40.9714 12.2034 40.983 12.0406C41.015 11.5002 40.9046 11.0091 40.8319 10.5325V10.5442ZM32.3296 11.041C32.0855 11.3694 31.6176 11.5641 31.112 11.4508C30.435 11.2909 31.2893 9.99787 31.5014 9.75087C31.5915 9.67823 31.6758 9.60559 31.7658 9.52713C31.8995 9.53875 32.0477 9.52713 32.1436 9.59396C32.3354 9.7131 32.2743 10.0124 32.2715 10.21C32.2569 10.4076 32.3964 10.8551 32.3296 11.041ZM35.1801 8.68154C35.122 8.76581 35.0029 8.95178 34.9186 9.02443C34.8431 9.04186 34.628 9.09707 34.5699 9.03896C34.4537 8.92854 34.3636 8.64377 34.3781 8.22243C34.4392 8.10039 34.6484 7.95219 34.8256 7.95219C35.0029 7.95219 35.1976 7.90279 35.3429 8.14397C35.3109 8.40259 35.2354 8.57403 35.1801 8.68445V8.68154Z" fill="#008CD6"/>
<path fill-rule="evenodd" clip-rule="evenodd" d="M55.2884 5.93555C55.7242 5.93555 56.3519 6.27262 56.5059 6.68524C56.6338 7.02522 56.532 7.4698 56.5204 7.85337C56.5291 8.24274 56.5378 8.63503 56.5466 9.03021C56.5466 9.30335 56.6076 9.59103 56.6686 9.84965C56.6861 9.91357 56.7035 9.97459 56.718 10.0385C56.7383 10.2594 56.5873 10.5035 56.7093 10.7098C56.7587 10.8027 56.8575 10.8434 56.9476 10.9015C57.0522 10.9829 57.1568 11.0672 57.2672 11.1456C57.3922 11.2183 57.5113 11.288 57.6334 11.3607C57.8135 11.4827 57.8745 11.657 58.0314 11.8052C58.1593 11.9273 58.3162 11.9767 58.4499 12.0755C58.5632 12.1539 58.6039 12.2789 58.6882 12.3777C58.784 12.491 58.9119 12.5637 58.9787 12.6915C59.0717 12.8891 59.0514 13.3831 59.0194 13.6185C59.0049 13.7579 58.9119 13.8625 58.8596 13.9875C58.7782 14.1618 58.7492 14.4902 58.5313 14.5745C58.3569 14.6442 57.8338 14.5686 57.677 14.5047C57.5317 14.4437 57.3951 14.3304 57.2498 14.2664C57.026 14.156 56.8081 14.095 56.5989 13.941C56.4332 13.8248 56.4129 13.5894 56.1892 13.5429C55.9451 13.4848 55.8143 13.7608 55.6719 13.8945C55.5615 14.0049 55.1285 14.4146 54.992 14.464C54.7159 14.5628 54.2103 14.8534 53.9023 14.8534C53.5594 14.8534 52.8184 14.99 52.461 14.9377C52.3041 14.9144 52.1269 14.9115 51.9816 14.8738C51.8566 14.8447 51.5893 14.6413 51.4789 14.5745C51.4004 14.4844 51.2203 14.3246 51.136 14.2403C51.0111 14.1444 50.8599 13.9904 50.7583 13.8596C50.7001 13.755 50.5752 13.6853 50.5142 13.5807C50.3979 13.4296 50.3543 13.0867 50.3485 12.8862C50.3427 12.7583 50.2962 12.6189 50.3224 12.5114C50.3369 12.3864 50.3514 12.2789 50.3747 12.151C50.4386 11.936 50.4328 11.7646 50.4938 11.5524C50.5345 11.4362 50.6536 11.2706 50.7292 11.1747C50.9355 10.919 51.3772 10.5703 51.6387 10.4192C51.7869 10.3378 51.9031 10.2448 52.0571 10.178C52.2605 10.085 53.5362 10.1518 53.6205 9.91939C53.6902 9.72179 53.6321 9.43993 53.6524 9.21619C53.6698 8.99825 53.7396 8.79194 53.7512 8.56239C53.7599 8.28052 53.7599 7.99866 53.7657 7.7197C53.7948 7.35648 53.9081 6.98744 54.0796 6.70267C54.1319 6.60969 54.2249 6.55157 54.283 6.47021C54.3498 6.37432 54.3585 6.24647 54.4602 6.17963C54.6898 6.03435 55.0239 6.014 55.2884 5.93555ZM53.821 12.2121C53.6756 12.029 53.5216 12.029 53.3444 12.029C53.1672 12.029 52.833 12.1539 52.769 12.2411C52.5599 12.8194 52.9812 13.0257 53.3124 13.0257C53.5362 13.014 53.821 12.6915 53.821 12.2121Z" fill="#008CD6"/>
<path fill-rule="evenodd" clip-rule="evenodd" d="M140.696 2.39352L140.402 2.0332C140.402 2.0332 140.306 1.67579 140.141 1.61186C139.978 1.54213 139.885 1.08882 139.885 1.08882C139.96 1.04524 139.946 0.56578 140.024 0.519288C140.097 0.464078 140.175 0.405962 140.251 0.347846C140.379 0.254861 140.521 0.208368 140.669 0.161876C140.812 0.138629 140.957 0.1241 141.102 0.10376C141.39 0.10376 141.649 0.115383 141.884 0.208368C141.96 0.23452 142.021 0.315882 142.099 0.371092C142.459 0.647142 142.642 0.879605 142.802 1.30676C142.817 1.44914 142.834 1.58862 142.854 1.73681C142.901 1.8821 143.133 2.0826 143.011 2.25986C142.942 2.32959 142.866 2.40224 142.796 2.47198C142.741 2.57368 142.683 2.67538 142.628 2.77999C142.477 2.9834 142.183 2.87879 141.954 2.91947C141.794 2.94562 141.625 3.01827 141.466 2.96015C141.323 2.89913 141.099 2.6347 140.925 2.72478L140.698 2.39643L140.696 2.39352Z" fill="#008CD6"/>
<path fill-rule="evenodd" clip-rule="evenodd" d="M139.635 1.70463C139.618 1.94 139.937 2.03589 139.908 2.19862C139.882 2.36425 140.204 2.65773 140.239 2.85242C140.271 3.0442 140.457 3.30572 140.457 3.30572C140.457 3.30572 140.376 3.90141 140.356 4.10482C140.338 4.22105 140.135 4.61042 140.042 4.67726C139.87 4.7993 139.461 4.79349 139.243 4.82255C139.144 4.84579 139.039 4.87194 138.938 4.89519C138.755 4.90972 138.603 4.74699 138.467 4.66273C138.249 4.52906 138.046 4.36343 137.842 4.19199C137.758 4.13097 137.676 4.06704 137.595 4.00021C137.505 3.88979 137.508 3.68929 137.444 3.56143C137.395 3.45682 137.273 3.41324 137.223 3.30282C137.191 3.17496 137.156 3.05292 137.121 2.92507C137.058 2.70713 136.912 2.46886 136.927 2.21605C136.944 2.02136 137.066 1.8906 137.087 1.6872C137.095 1.54772 137.069 1.32979 137.162 1.23099C137.264 1.11476 137.784 0.981092 137.955 0.981092C138.176 0.850332 138.368 0.908447 138.592 0.969469C138.685 0.992716 138.778 1.01015 138.871 1.0334C139.022 1.09151 139.106 1.20193 139.292 1.20193C139.292 1.20193 139.65 1.45764 139.635 1.69882L139.635 1.70463Z" fill="#008CD6"/>
<path d="M31.4087 25.6387H0V36.1082H31.4087V25.6387Z" fill="#00A040"/>
<path d="M31.4087 38.4358H0V48.9053H31.4087V38.4358Z" fill="#008CD6"/>
<path fill-rule="evenodd" clip-rule="evenodd" d="M43.0405 26.459V48.0897H47.4428V38.6313H56.5989V34.4528H47.4428V30.6317H56.7529V26.459H43.0405Z" fill="#008CD6"/>
<path fill-rule="evenodd" clip-rule="evenodd" d="M69.5531 44.9855V37.9506C69.5531 35.6289 68.353 32.6853 63.2708 32.6853C61.2716 32.6853 59.6443 33.1328 58.546 33.5745V37.4072C59.8013 36.6227 61.1902 36.2071 62.71 36.2071C64.0815 36.2071 65.4472 36.6749 65.4472 38.2877V38.3894C64.776 38.1511 63.9159 37.9913 63.0238 37.9913C59.563 37.9913 57.0117 39.8045 57.0117 43.3641C57.0117 46.9237 59.8739 48.1848 62.1666 48.1848C63.5991 48.1848 64.8312 47.7257 65.6303 47.0806C65.7117 47.5281 65.825 47.9 65.9644 48.0889H70.4888C69.9454 47.653 69.5531 46.7726 69.5531 44.9884V44.9855ZM61.1379 42.9021C61.1379 41.7049 62.1666 40.9029 63.634 40.9029C64.3808 40.9029 64.9794 41.0685 65.4472 41.3213V43.9016C65.0346 44.2765 64.3169 44.7153 63.2679 44.7153C61.9051 44.7153 61.1379 43.9453 61.1379 42.9021Z" fill="#008CD6"/>
<path fill-rule="evenodd" clip-rule="evenodd" d="M158.859 44.9855V37.9506C158.859 35.6289 157.665 32.6853 152.577 32.6853C150.578 32.6853 148.951 33.1328 147.846 33.5745V37.4072C149.11 36.6227 150.499 36.2071 152.019 36.2071C153.385 36.2071 154.75 36.6749 154.75 38.2877V38.3894C154.073 38.1511 153.219 37.9913 152.333 37.9913C148.869 37.9913 146.321 39.8045 146.321 43.3641C146.321 46.9237 149.18 48.1848 151.473 48.1848C152.905 48.1848 154.134 47.7257 154.933 47.0806C155.018 47.5281 155.137 47.9 155.265 48.0889H159.798C159.254 47.653 158.862 46.7726 158.862 44.9884L158.859 44.9855ZM150.45 42.9021C150.45 41.7049 151.473 40.9029 152.937 40.9029C153.687 40.9029 154.285 41.0685 154.75 41.3213V43.9016C154.332 44.2765 153.626 44.7153 152.568 44.7153C151.214 44.7153 150.447 43.9453 150.447 42.9021H150.45Z" fill="#008CD6"/>
<path fill-rule="evenodd" clip-rule="evenodd" d="M87.8101 32.8359C86.026 32.8359 84.7155 33.2631 83.4921 34.5678C82.6291 33.4781 81.2634 32.8359 79.6216 32.8359C78.2704 32.8359 77.0093 33.2253 75.8615 34.2307V32.9841H72.02V48.0855H76.1521V37.9094C76.6489 37.2934 77.3522 36.7733 78.3285 36.7733C79.5722 36.7733 80.2783 37.6247 80.2783 39.1647V48.0855H84.4917V37.8019C84.9682 37.1975 85.6627 36.7733 86.6391 36.7733C87.9845 36.7733 88.5918 37.7264 88.5918 39.1647V48.0855H92.8051V37.6247C92.8051 34.7915 90.992 32.8359 87.813 32.8359H87.8101Z" fill="#008CD6"/>
<path d="M106.631 26.459H102.504V48.0868H106.631V26.459Z" fill="#008CD6"/>
<path fill-rule="evenodd" clip-rule="evenodd" d="M134.517 33.1772L129.049 26.459H124.527V48.0868H129.049V33.1772L134.517 40.4126L139.977 33.1772V48.0868H144.502V26.459H139.977L134.517 33.1772Z" fill="#008CD6"/>
<path d="M99.6628 32.9846H95.5308V48.086H99.6628V32.9846Z" fill="#008CD6"/>
<path fill-rule="evenodd" clip-rule="evenodd" d="M97.5937 26.127C96.1146 26.127 94.9116 27.3241 94.9116 28.809C94.9116 30.2939 96.1146 31.4882 97.5937 31.4882C99.0727 31.4882 100.276 30.288 100.276 28.809C100.276 27.3299 99.0786 26.127 97.5937 26.127Z" fill="#008CD6"/>
<path fill-rule="evenodd" clip-rule="evenodd" d="M165.101 34.5703V32.9838H161.144V48.0852H165.281V38.5978C165.877 37.8307 166.848 37.1391 168.248 37.1391C169.329 37.1391 170.12 37.5604 170.57 37.8946V33.347C170.062 32.9838 169.242 32.7949 168.562 32.7949C167.388 32.7949 166.098 33.2424 165.101 34.5674V34.5703Z" fill="#008CD6"/>
<path fill-rule="evenodd" clip-rule="evenodd" d="M179.444 44.2308C178.131 44.2308 177.637 43.2167 177.637 42.0979V36.9431H181.159V32.9883H177.637V27.2871L173.563 29.019V32.9883H171.334V36.9431H173.563V42.7052C173.563 45.8406 174.815 48.2611 178.503 48.2611C179.598 48.2611 180.572 48.0897 181.214 47.834V43.6583C180.909 44.007 180.339 44.2337 179.444 44.2337V44.2308Z" fill="#008CD6"/>
<path fill-rule="evenodd" clip-rule="evenodd" d="M111.617 52.0001H116.261L123.229 32.9846H118.702L115.831 41.1441L112.716 32.9846H108L113.689 46.6825L111.617 52.0001Z" fill="#008CD6"/>
<path fill-rule="evenodd" clip-rule="evenodd" d="M48.7244 1.00977C49.0731 1.00977 49.4857 1.00977 49.7792 1.14343C49.9012 1.19864 49.9565 1.32069 50.0349 1.42529C50.2906 1.76527 50.4592 1.89313 50.4098 2.40745C50.3865 2.63701 50.2354 3.01185 50.3749 3.22107C50.5114 3.43029 50.7991 3.41867 51.0171 3.4855C51.1711 3.53199 51.3193 3.59592 51.4587 3.66566C51.5226 3.69471 51.6156 3.71796 51.665 3.7877C51.6999 3.90393 51.7319 4.02016 51.761 4.13058C51.8045 4.25553 51.9179 4.33108 51.9034 4.48799C51.8946 4.60713 51.8278 4.67978 51.7987 4.79601C51.7522 4.96164 51.8074 5.27546 51.6854 5.40041C51.5837 5.4963 51.3745 5.47887 51.2379 5.50793C51.0927 5.55442 50.9444 5.60091 50.7933 5.6474C50.5667 5.68518 50.2674 5.65903 50.032 5.66193C49.8431 5.66775 49.6107 5.61835 49.4799 5.7433C49.3869 5.82466 49.3753 5.96414 49.3259 6.06874C49.2126 6.32736 49.0644 6.57726 48.9888 6.85331C48.9685 6.96663 48.9452 7.08286 48.9278 7.19619C48.8813 7.34148 48.7796 7.42284 48.7302 7.56232C48.6924 7.7018 48.6576 7.84709 48.6169 7.98657C48.5152 8.26843 48.3786 8.55029 48.2217 8.81472C48.1636 8.91932 48.1897 9.08495 48.0764 9.15469C47.905 9.2564 47.5795 9.18956 47.379 9.23024C47.2308 9.29417 47.0855 9.34357 46.9344 9.40168C46.6468 9.45399 46.4666 9.21571 46.2283 9.14597C46.1528 9.12854 46.0714 9.1082 45.993 9.08786C45.9029 9.0588 45.5949 8.85249 45.5716 8.77985C45.5077 8.6084 45.5455 8.34107 45.5484 8.1551C45.5571 7.91973 45.5077 7.64659 45.5687 7.42284C45.5978 7.28046 45.7053 7.17004 45.7576 7.03347C45.836 6.76904 45.9116 6.50752 45.993 6.246C46.0569 6.01644 46.2167 5.72296 46.1528 5.45562C46.1383 5.39751 46.1121 5.3452 46.0598 5.31905C45.929 5.2435 45.7169 5.27256 45.5716 5.2435C45.4322 5.22316 45.3363 5.13308 45.2084 5.08078C45.0864 5.03428 44.9498 5.03428 44.8539 4.93839C44.7232 4.81344 44.5342 4.61585 44.4703 4.45022C44.3541 4.15092 44.2902 3.43901 44.4732 3.16005C44.6331 2.91596 45.2607 2.6835 45.5716 2.6835C45.8215 2.51496 46.4666 2.62829 46.8066 2.62829C46.8821 2.59342 46.978 2.59633 47.0507 2.54402C47.1495 2.45394 47.1814 2.33481 47.257 2.22729C47.3848 2.082 47.5127 1.94252 47.6406 1.79724C47.8207 1.56477 47.9718 1.28872 48.2391 1.14343C48.3815 1.06207 48.5616 1.06207 48.7244 1.00977Z" fill="#008CD6"/>
<path fill-rule="evenodd" clip-rule="evenodd" d="M129.912 0.964844C130.115 0.964844 130.322 0.964844 130.508 0.999713C131.001 1.11594 131.49 1.4966 131.655 1.97896C131.748 2.26664 131.757 2.60371 131.772 2.93787C131.792 3.05411 131.803 3.17615 131.818 3.29238C131.812 3.56262 131.652 4.17574 131.824 4.41692C131.879 4.48957 131.94 4.50991 132.01 4.55931C132.379 4.84407 132.762 4.79467 133.277 4.79467C133.486 4.71622 134.224 4.90219 134.43 4.95159C134.581 4.96902 134.738 4.98936 134.889 5.0097C135.023 5.01551 135.174 5.00099 135.29 5.04167C135.401 5.07363 135.453 5.18696 135.54 5.26832C135.601 5.32353 135.674 5.37583 135.738 5.42523C135.799 5.50078 135.822 5.59958 135.848 5.69547C136.002 6.12262 135.965 6.27953 135.68 6.62532C135.038 7.43604 133.736 7.37792 132.73 7.28203C132.507 7.26169 132.135 7.09606 131.925 7.17742C131.731 7.24425 131.789 7.49706 131.76 7.66559C131.731 7.80507 131.702 7.93874 131.676 8.07822C131.629 8.34846 131.641 8.64775 131.655 8.92961C131.658 9.2725 131.617 9.61828 131.676 9.96117C131.705 10.1471 131.824 10.3622 131.949 10.5016C132.021 10.5656 132.097 10.6237 132.172 10.6905C132.236 10.7515 132.292 10.83 132.37 10.8736C132.495 10.9259 132.62 10.9724 132.748 11.0189C132.847 11.077 132.887 11.2019 133.009 11.2368C133.175 11.2978 133.37 11.2804 133.55 11.3269C133.806 11.3937 134.07 11.51 134.343 11.5158C134.488 11.5216 134.663 11.5216 134.799 11.478C134.915 11.4431 135.009 11.3472 135.133 11.3007C135.29 11.2542 135.886 11.3007 136.031 11.353C136.153 11.4257 136.27 11.4925 136.389 11.5652C136.639 11.7017 136.618 11.8151 136.746 12.033C136.828 12.1696 137.008 12.1986 137.063 12.3526C137.127 12.5154 137.101 12.9512 137.028 13.0994C136.95 13.2767 136.595 13.6167 136.424 13.6777C136.238 13.7416 135.933 13.7242 135.738 13.7503C135.526 13.7765 135.325 13.8491 135.107 13.8607C134.837 13.8782 134.549 13.7852 134.285 13.7532C134.087 13.7329 133.887 13.7213 133.686 13.7067C133.442 13.666 133.198 13.6312 132.948 13.5905C132.791 13.5295 132.637 13.4714 132.475 13.4045C132.254 13.3319 132.018 13.3115 131.801 13.2389C131.652 13.1924 131.553 13.1227 131.42 13.0558C131.347 13.0297 131.28 13.0064 131.211 12.9832C131.103 12.928 131.001 12.8699 130.897 12.8147C130.67 12.7013 130.412 12.6142 130.199 12.4689C130.08 12.3846 130.013 12.2684 129.9 12.1638C129.83 12.1027 129.755 12.0417 129.682 11.9778C129.607 11.8877 129.534 11.7976 129.458 11.7075C129.342 11.6175 129.252 11.4983 129.133 11.4083C129.055 11.3472 128.924 11.2978 128.871 11.2078C128.787 11.0654 128.796 10.8503 128.747 10.6876C128.659 10.397 128.558 10.0571 128.537 9.74324C128.537 9.59795 128.543 9.44975 128.546 9.30737C128.534 9.19114 128.523 9.0749 128.508 8.95867C128.517 8.7233 128.569 8.53733 128.593 8.32521C128.593 7.94455 128.593 7.55808 128.604 7.18033C128.604 6.84035 128.61 6.50038 128.61 6.16621C128.633 6.02964 128.656 5.89016 128.677 5.75068C128.677 5.59086 128.686 5.42523 128.688 5.2596C128.723 4.93706 128.758 4.62323 128.787 4.30069C128.805 4.03045 128.738 3.76312 128.718 3.50741C128.7 3.29529 128.72 3.03667 128.726 2.82746C128.735 2.66473 128.72 2.51944 128.749 2.35963C128.776 2.22596 128.837 2.10973 128.883 1.98478C128.915 1.88017 128.918 1.75232 128.976 1.66224C129.06 1.57216 129.148 1.48208 129.235 1.38619C129.302 1.29901 129.319 1.17697 129.427 1.11304C129.572 1.02006 129.746 1.01134 129.915 0.964846L129.912 0.964844Z" fill="#008CD6"/>
<path fill-rule="evenodd" clip-rule="evenodd" d="M67.879 1.39834C68.2567 1.39834 68.3439 1.47099 68.6287 1.63371C68.7275 1.68892 68.8263 1.74994 68.928 1.79934C69.0093 1.8807 69.0326 2.01437 69.1517 2.05505C69.3581 2.13932 69.7213 2.08702 69.9567 2.12188C70.2821 2.16257 70.8458 2.31367 71.1248 2.45896C71.2556 2.52288 71.3601 2.63621 71.4735 2.7292C71.5403 2.78731 71.6275 2.8309 71.6769 2.90935C71.7553 3.0314 71.735 3.28711 71.6943 3.42658C71.6507 3.57187 71.4182 4.06876 71.2846 4.13269C71.1858 4.16465 71.0841 4.19952 70.9853 4.22858C70.8574 4.30123 70.7819 4.42036 70.6366 4.46105C70.2472 4.58599 69.3842 4.40874 69.2883 4.92888C69.2563 5.17006 69.2186 5.41996 69.1866 5.66404C69.143 5.91685 69.0413 6.16965 69.0122 6.43408C68.9745 6.80311 68.9977 7.15471 68.9396 7.50341C68.8583 7.96543 68.774 8.43616 68.6926 8.89818C68.6229 9.33115 68.6374 9.7612 68.5474 10.1796C68.527 10.2901 68.4485 10.3424 68.3933 10.4412C68.3526 10.5341 68.312 10.6329 68.2684 10.7317C68.248 10.8276 68.2219 10.9293 68.1986 11.0281C68.1579 11.1676 68.0911 11.2955 68.0563 11.4408C68.0359 11.5541 68.0214 11.6703 67.9981 11.7865C67.9487 11.9493 67.8557 12.0742 67.8005 12.2311C67.7831 12.3474 67.7628 12.4636 67.7482 12.5798C67.7047 12.7222 67.6 12.8094 67.5506 12.943C67.4984 13.0941 67.446 13.2365 67.3967 13.3789C67.3676 13.4951 67.3415 13.6143 67.3153 13.7276C67.2572 13.8119 67.202 13.8961 67.1438 13.9833C67.0683 14.146 67.0479 14.3843 66.8998 14.5005C66.8213 14.5674 66.6934 14.547 66.5947 14.5674C66.1908 14.6429 65.7839 14.7069 65.3335 14.701C65.0749 14.6923 64.8977 14.5848 64.7321 14.4192C64.5809 14.2623 64.4705 14.1257 64.424 13.9194C64.3746 13.7102 64.4386 13.4864 64.4793 13.2946C64.5519 12.9314 64.6594 12.6263 64.7117 12.2544C64.7321 12.1062 64.8512 11.9987 64.9064 11.8679C64.9587 11.7342 64.9325 11.5715 64.9819 11.4349C65.0372 11.3274 65.0953 11.2141 65.1447 11.1037C65.2405 10.7753 65.2405 10.4295 65.3103 10.0954C65.4004 9.88615 65.4846 9.67403 65.566 9.4619C65.6183 9.24397 65.5747 8.97083 65.6096 8.7558C65.6386 8.65119 65.6735 8.55239 65.6997 8.44779C65.7549 8.1543 65.813 7.86663 65.8653 7.57024C65.935 7.0501 65.906 6.54159 65.906 6.01564C65.906 5.66404 66.0048 5.32406 65.9379 4.97537C65.8885 4.67026 65.0372 4.71094 64.7611 4.67317C64.6274 4.65282 64.5344 4.54531 64.4182 4.49882C64.3049 4.47557 64.1887 4.44651 64.0782 4.41746C63.9562 4.35062 63.962 4.21986 63.8807 4.12397C63.8138 4.06295 63.747 4.00774 63.6743 3.94962C63.6307 3.89151 63.4448 3.40624 63.4361 3.33069C63.4186 3.20284 63.4826 3.06626 63.5058 2.94713C63.5407 2.81637 63.5494 2.68561 63.6133 2.57228C63.7441 2.32238 64.1799 2.30785 64.4211 2.2294C64.6245 2.16256 64.7495 2.04633 64.9994 2.04633C65.1389 1.98531 65.4817 2.04633 65.6561 2.04633C65.8304 1.97369 66.121 2.04633 66.3099 2.04633C66.4697 1.96497 66.6498 1.98241 66.801 1.89233C66.9928 1.74122 67.1991 1.59594 67.3938 1.44774C67.5564 1.43031 67.7134 1.40997 67.8732 1.38672L67.879 1.39834Z" fill="#008CD6"/>
<path fill-rule="evenodd" clip-rule="evenodd" d="M81.031 1.83103C81.3012 1.83103 81.5627 1.86009 81.8213 1.86009C81.984 1.79616 82.5391 1.88334 82.6698 1.95889C82.94 2.13033 83.219 2.38023 83.3207 2.67952C83.3614 2.80157 83.3527 2.9672 83.3527 3.11539C83.3527 3.45246 83.3323 3.80697 83.3323 4.12661C83.3323 4.44624 83.4428 4.77169 83.4805 5.08842C83.5067 5.3296 83.4428 5.61728 83.5096 5.84393C83.5241 5.87298 83.5444 5.90495 83.5648 5.93691C83.6607 5.99503 83.7624 6.05605 83.8582 6.11126C83.9803 6.19262 84.0791 6.32629 84.2244 6.36697C84.3261 6.36697 84.4278 6.36697 84.5237 6.36697C84.6428 6.31757 84.8317 6.36697 84.9654 6.36697C85.0671 6.33791 85.1629 6.30885 85.2676 6.27979C85.5552 6.18681 85.7674 6.06767 86.1161 6.06767C86.241 6.00956 86.52 6.02699 86.6333 6.09963C86.6827 6.14903 86.7351 6.19553 86.7902 6.24202C86.9646 6.36406 87.1738 6.40474 87.3395 6.57037C87.4179 6.64011 87.4208 6.736 87.4411 6.83189C87.5313 7.26195 87.4615 7.32879 87.3423 7.70654C87.3191 7.80533 87.29 7.90122 87.2668 7.99421C87.1767 8.16274 86.9907 8.18018 86.8396 8.24992C86.6856 8.31094 86.581 8.43008 86.4212 8.48529C86.1423 8.53469 85.8603 8.58118 85.5814 8.63058C85.4536 8.67707 85.163 8.80783 85.0671 8.90663C85.0061 8.97927 84.948 9.05482 84.887 9.13328C84.823 9.17687 84.762 9.22626 84.7009 9.27566C84.4656 9.46744 84.3028 9.70572 84.1866 9.96143C84.0908 10.1706 83.9891 10.467 83.992 10.7169C83.9978 10.8274 84.0385 10.8826 84.0791 10.9726C84.236 11.333 84.5499 11.4841 84.9683 11.4841C85.0874 11.4637 85.2066 11.4463 85.3228 11.4259C85.564 11.3417 85.7906 11.2719 86.0637 11.2284C86.1858 11.208 86.2875 11.1644 86.4212 11.1644C86.5693 11.1644 86.6972 11.208 86.8338 11.2371C86.9442 11.2574 87.0837 11.2719 87.1621 11.3475C87.2726 11.4434 87.3162 11.6235 87.3598 11.7572C87.4237 11.9461 87.4615 12.2163 87.383 12.4197C87.2813 12.6754 87.1302 12.7975 86.9878 13.027C86.9181 13.1404 86.8803 13.3002 86.7612 13.3786C86.642 13.4484 86.4735 13.4484 86.3457 13.4949C86.1887 13.5472 86.0259 13.6053 85.8691 13.6576C85.6308 13.7099 85.3489 13.7012 85.0816 13.7012C84.8346 13.7041 84.5847 13.7128 84.3406 13.7215C84.0908 13.7012 83.835 13.614 83.5939 13.5501C83.3933 13.4949 83.1987 13.4803 83.004 13.4077C82.7831 13.306 82.5652 13.1956 82.3502 13.0939C82.2398 13.0009 82.2223 12.873 82.1119 12.7917C81.9695 12.6783 81.7632 12.5795 81.6557 12.4401C81.5191 12.257 81.4726 12.01 81.3476 11.8124C81.2547 11.6671 81.0716 11.6177 81.0136 11.455C80.9496 11.269 80.9699 11.0366 80.9699 10.8274C80.9699 10.406 80.9496 9.97886 81.0803 9.62726C81.1501 9.4442 81.2227 9.26694 81.2954 9.0926C81.3884 8.9938 81.4843 8.8921 81.5772 8.79039C81.6441 8.69741 81.9898 8.00874 81.9724 7.939C81.9114 7.71525 81.6906 7.63098 81.5249 7.52638C81.3854 7.43049 81.2488 7.32878 81.1181 7.22999C80.9815 7.11085 80.8566 6.86967 80.7636 6.71566C80.7026 6.58199 80.6357 6.44833 80.5776 6.31466C80.534 6.21877 80.4585 6.14613 80.441 6.03571C80.3714 5.69864 80.4352 5.34994 80.4207 4.99834C80.3859 4.78331 80.3568 4.55666 80.3219 4.34163C80.3219 4.24283 80.3219 4.14404 80.3219 4.03943C80.3045 3.83312 80.2725 3.63843 80.2667 3.44084C80.2667 3.33914 80.2696 3.24324 80.2784 3.14154C80.2667 2.91489 80.2115 2.70567 80.3045 2.49355C80.3655 2.34536 80.4934 2.28724 80.6067 2.19716C80.7607 2.07512 80.8682 1.93564 81.031 1.82812V1.83103Z" fill="#008CD6"/>
<path fill-rule="evenodd" clip-rule="evenodd" d="M147.094 1.66211C147.257 1.66211 147.42 1.67373 147.582 1.67373C147.713 1.7086 147.844 1.74928 147.972 1.78996C148.12 1.82483 148.312 1.86551 148.425 1.97012C148.573 2.10088 148.704 2.42924 148.777 2.61521C148.817 2.72272 148.916 2.80408 148.936 2.92322C148.954 3.01911 148.936 3.12372 148.931 3.22252C148.907 3.6642 148.768 4.02161 148.698 4.42842C148.666 4.75677 148.631 5.08513 148.593 5.40767C148.556 5.68372 148.518 5.95687 148.477 6.2271C148.445 6.36368 148.416 6.50315 148.384 6.64263C148.344 6.9797 148.355 7.33421 148.315 7.67709C148.268 8.07228 148.216 8.45294 148.181 8.86265C148.172 9.03119 148.158 9.20263 148.152 9.37698C148.178 9.56876 148.361 10.1209 148.466 10.3039C148.547 10.4376 148.71 10.9984 148.71 11.0972C148.71 11.3733 148.977 11.6319 148.922 11.8266C148.887 11.9224 149.015 12.3932 148.878 12.4281C148.753 12.5443 148.692 12.6576 148.506 12.7535C148.251 12.8785 148.187 13.1487 147.946 13.0644C147.847 13.0121 147.751 12.9598 147.652 12.9046C147.524 12.8843 147.393 12.8639 147.263 12.8349C147.091 12.7884 146.853 12.614 146.708 12.4978C146.562 12.3932 146.394 12.367 146.249 12.2479C146.17 12.184 146.141 12.0997 146.092 12.0212C145.932 11.7743 145.76 11.5679 145.653 11.3064C145.56 11.0769 145.368 10.9083 145.301 10.6642C145.237 10.4172 145.293 10.0569 145.278 9.79251C145.266 9.56295 145.191 9.35954 145.182 9.1387C145.15 8.45003 145.324 7.79332 145.383 7.13952C145.415 6.83441 145.388 6.5293 145.426 6.23873C145.464 5.98592 145.574 5.77961 145.603 5.521C145.612 5.35246 145.621 5.18102 145.635 5.00667C145.659 4.90787 145.682 4.80327 145.708 4.70156C145.749 4.46038 145.789 4.19596 145.816 3.96349C145.839 3.73684 145.853 3.51019 145.865 3.28063C145.914 3.115 145.961 2.94937 146.01 2.78665C146.051 2.6123 146.033 2.40308 146.127 2.25489C146.19 2.19096 146.26 2.12413 146.327 2.05729C146.405 1.99046 146.478 1.92363 146.554 1.85389C146.719 1.76381 146.914 1.73185 147.091 1.66792L147.094 1.66211Z" fill="#008CD6"/>
<path fill-rule="evenodd" clip-rule="evenodd" d="M101.517 2.81641C101.842 2.81641 102.107 2.89777 102.4 2.9646C102.569 2.98204 102.737 2.99656 102.911 3.01691C103.158 3.0634 103.403 3.11571 103.655 3.1622C103.85 3.18544 104.077 3.15348 104.28 3.17963C105.088 3.30167 105.907 3.45859 106.686 3.64456C106.962 3.71139 107.261 3.7172 107.561 3.7172C107.741 3.7172 107.947 3.69396 108.101 3.74045C108.209 3.77532 108.264 3.85087 108.357 3.90608C108.444 3.9642 108.552 3.97291 108.627 4.04846C108.685 4.13273 108.752 4.21409 108.81 4.30417C109.025 4.49014 109.179 4.55697 109.301 4.84465C109.394 5.06549 109.269 5.36769 109.264 5.60887C109.258 5.83552 109.255 6.06217 109.252 6.29464C109.24 6.41087 109.226 6.53001 109.205 6.64624C109.226 6.92519 109.246 7.19543 109.261 7.46858C109.269 7.84923 109.24 8.2357 109.298 8.59021C109.33 8.74422 109.368 8.90113 109.388 9.06095C109.394 9.34281 109.4 9.62176 109.406 9.90363C109.449 10.3221 109.572 10.6998 109.612 11.1124C109.63 11.3187 109.603 11.5628 109.603 11.7691C109.603 11.9813 109.603 12.3067 109.487 12.4665C109.426 12.5305 109.368 12.5944 109.301 12.6554C109.243 12.7339 109.179 12.8065 109.115 12.8763C108.892 13.0361 108.403 13.0157 108.116 13.0651C107.985 13.1029 107.854 13.1349 107.726 13.1755C107.572 13.1872 107.5 13.1 107.381 13.0564C107.311 13.0419 107.247 13.0303 107.18 13.0157C107.009 12.9838 106.831 13.0215 106.663 13.0157C106.32 13.0012 105.997 12.9256 105.678 12.8763C105.227 12.8007 104.73 12.9024 104.28 12.8763C104.17 12.8588 104.065 12.8385 103.952 12.8239C103.806 12.8356 103.658 12.8559 103.516 12.8763C103.094 12.9024 102.609 12.8065 102.295 12.5944C102.109 12.4782 102.109 12.3009 102.019 12.1324C101.787 11.6733 101.508 11.4553 101.839 10.9439C101.932 10.7928 102.031 10.7027 102.226 10.7027C102.432 10.5749 102.632 10.4092 102.882 10.3831C103.06 10.3889 103.231 10.3976 103.408 10.4005C103.841 10.4092 104.234 10.4557 104.64 10.4819C104.774 10.4877 104.913 10.4877 105.044 10.4906C105.346 10.5197 105.657 10.6533 105.977 10.6068C106.111 10.5836 106.23 10.4935 106.279 10.3744C106.361 10.1884 106.209 9.86295 106.186 9.65954C106.186 9.39221 106.18 9.11326 106.178 8.84302C106.183 8.7355 106.186 8.62218 106.195 8.51466C106.186 8.20955 106.111 7.89863 106.05 7.61096C106.032 7.34653 106.012 7.08211 105.989 6.81768C105.974 6.57359 106.154 6.31207 106.044 6.09124C106.035 6.07089 106.026 6.05927 106.015 6.04474C105.84 5.83553 104.852 5.90526 104.53 5.88202C104.347 5.8733 104.251 5.75997 104.088 5.70186C103.891 5.67571 103.687 5.64665 103.49 5.6234C103.289 5.60887 103.092 5.60306 102.885 5.59434C102.612 5.60015 102.333 5.64374 102.04 5.60306C101.874 5.57981 101.676 5.55657 101.534 5.48392C101.421 5.41418 101.305 5.33863 101.191 5.26308C101.101 5.22531 101.014 5.19625 100.927 5.15847C100.613 4.98994 100.285 4.75748 100.157 4.40588C100.011 4.02812 100.232 3.66199 100.43 3.37432C100.5 3.27552 100.546 3.15639 100.659 3.09246C100.755 3.03725 100.88 3.04306 101.002 3.04306C101.177 2.97041 101.348 2.90068 101.52 2.82513L101.517 2.81641Z" fill="#008CD6"/>
<path fill-rule="evenodd" clip-rule="evenodd" d="M116.127 4.28906C116.391 4.29778 116.571 4.39658 116.816 4.44307C116.978 4.46631 117.141 4.48956 117.304 4.51281C117.443 4.57092 117.516 4.72202 117.661 4.78305C117.774 4.8092 117.885 4.84116 117.99 4.86441C118.173 4.93705 118.315 5.0591 118.507 5.12302C118.635 5.15789 118.783 5.16951 118.89 5.22763C119.036 5.30899 119.152 5.5124 119.271 5.63735C119.39 5.7623 119.582 5.84657 119.66 6.00348C119.698 6.08193 119.689 6.16911 119.689 6.25918C119.675 6.64565 119.55 6.93333 119.315 7.19775C119.213 7.29946 119.059 7.27912 118.931 7.32561C118.838 7.38373 118.736 7.44184 118.64 7.49705C118.42 7.56098 118.077 7.47962 117.888 7.39535C117.821 7.35176 117.751 7.31108 117.679 7.26459C117.522 7.22972 117.353 7.18904 117.19 7.15126C116.827 7.06409 116.409 7.10477 116.048 7.01178C115.9 6.97401 115.801 6.84906 115.668 6.77642C115.554 6.72992 115.435 6.68634 115.319 6.63694C114.947 6.44516 114.72 6.07612 114.645 5.68674C114.613 5.50949 114.569 5.29447 114.645 5.12302C114.712 4.96321 114.84 4.88184 114.97 4.79467C115.069 4.73365 115.165 4.66972 115.264 4.6087C115.551 4.47503 115.865 4.4605 116.13 4.29197L116.127 4.28906Z" fill="#008CD6"/>
<path fill-rule="evenodd" clip-rule="evenodd" d="M72.1481 7.125C72.2585 7.14824 72.3689 7.16858 72.4793 7.19183C72.8687 7.2732 73.2319 7.2761 73.5748 7.44464C73.662 7.50275 73.7462 7.55796 73.8305 7.62189C73.9497 7.65095 74.0659 7.68291 74.185 7.71778C74.2809 7.78461 74.3739 7.85435 74.4698 7.92409C74.5686 7.96477 74.6645 8.00836 74.7604 8.04904C74.8359 8.11878 74.9085 8.18852 74.9783 8.24954C75.0538 8.2815 75.1265 8.30766 75.2049 8.34252C75.3212 8.41807 75.4374 8.49363 75.5537 8.56337C75.8762 8.79583 75.85 9.35955 75.6379 9.65594C75.5101 9.8361 75.3938 9.86515 75.1875 9.93199C75.0829 9.96686 74.9986 10.0686 74.8795 10.0976C74.4873 10.179 74.0601 10.0017 73.7027 9.92618C73.4499 9.87678 73.1796 9.8884 72.9472 9.7867C72.8019 9.72858 72.7728 9.57167 72.6391 9.50484C72.5374 9.47869 72.4415 9.44672 72.3427 9.41476C72.2353 9.35955 72.1306 9.30434 72.0231 9.25204C71.9127 9.22007 71.8052 9.19102 71.6919 9.15615C71.5117 9.07769 71.1252 8.71446 71.0264 8.54593C70.9683 8.44713 70.9683 8.31928 70.9683 8.18852C70.9683 8.081 70.9625 7.96477 70.9887 7.87469C71.0846 7.5754 71.596 7.34584 71.8604 7.24413C71.9505 7.20926 72.0405 7.15115 72.1423 7.15115V7.125H72.1481Z" fill="#008CD6"/>
<path fill-rule="evenodd" clip-rule="evenodd" d="M122.639 7.60156C123.906 7.60156 124.417 8.71448 123.647 9.67339C123.574 9.75766 123.481 9.77799 123.388 9.82739C123.159 9.96396 122.921 10.0947 122.688 10.2226C122.63 10.272 122.572 10.3185 122.517 10.3708C122.429 10.4347 122.342 10.4899 122.258 10.5509C122.194 10.6207 122.159 10.7195 122.081 10.7834C121.941 10.8967 121.735 10.9112 121.587 11.0071C121.331 11.1728 121.139 11.4081 120.889 11.5883C120.831 11.6261 120.767 11.6522 120.709 11.6871C120.23 12.0096 119.669 12.277 119.105 12.4223C119.027 12.4281 118.948 12.4455 118.873 12.4571C118.757 12.4833 118.646 12.5152 118.539 12.5443C118.361 12.5443 118.19 12.553 118.018 12.5559C117.789 12.5646 117.539 12.5908 117.333 12.5269C117.158 12.4717 117.022 12.3525 116.862 12.2857C116.728 12.2363 116.58 12.2101 116.464 12.1288C116.391 12.0503 116.316 11.9835 116.252 11.9108C116.176 11.8585 116.104 11.8033 116.022 11.7452C115.755 11.4343 115.801 11.0449 115.921 10.6672C115.947 10.5509 115.97 10.426 116.048 10.3417C116.214 10.1761 116.583 10.0366 116.839 10.0366C116.908 10.025 116.984 10.0134 117.06 10.0134C117.153 9.96396 117.324 9.9814 117.44 9.9814C117.559 9.93491 117.844 9.94943 117.984 9.94943C118.158 9.86807 118.379 9.89422 118.55 9.80124C118.675 9.70825 118.797 9.61818 118.919 9.52519C119.262 9.28982 119.649 9.07479 119.997 8.84524C120.096 8.76968 120.189 8.68832 120.285 8.61277C120.416 8.53141 120.555 8.50235 120.686 8.43842C120.852 8.35706 121.017 8.2757 121.18 8.19433C121.5 8.01418 121.578 7.71488 122.011 7.71488C122.081 7.70326 122.153 7.70036 122.229 7.68873C122.302 7.67711 122.374 7.67129 122.447 7.66258C122.517 7.64515 122.572 7.62771 122.639 7.61028V7.60156Z" fill="#008CD6"/>
<path fill-rule="evenodd" clip-rule="evenodd" d="M152.699 9.74023C153.242 9.74023 153.765 9.85066 154.166 10.1412C154.268 10.2197 154.303 10.3243 154.384 10.4144C154.547 10.5132 154.704 10.6207 154.867 10.7166C155.038 10.795 155.239 10.8619 155.436 10.8851C155.634 10.9171 155.832 10.9461 156.023 10.9723C156.372 11.0914 156.628 11.5244 156.665 11.8789C156.683 12.0474 156.724 12.2741 156.628 12.4194C156.479 12.6373 156.232 12.9163 155.974 12.9889C155.814 13.0063 155.648 13.0238 155.491 13.0412C155.059 13.1168 154.596 13.1574 154.146 13.0819C153.983 13.0499 153.824 12.9453 153.675 12.8756C153.521 12.8204 153.376 12.7652 153.228 12.71C153.129 12.6373 153.033 12.5705 152.937 12.4978C152.493 12.2421 152.159 11.9603 151.929 11.4924C151.842 11.3123 151.691 11.1089 151.731 10.8706C151.822 10.3388 152.283 10.0279 152.696 9.74023H152.699Z" fill="#008CD6"/>
<path fill-rule="evenodd" clip-rule="evenodd" d="M72.5316 10.5977C72.8919 10.5977 73.1302 10.6761 73.4324 10.7517C73.6852 10.8098 73.938 10.8446 74.1414 10.9841C74.2199 11.0393 74.2722 11.1381 74.3215 11.2137C74.4174 11.3415 74.5598 11.4461 74.6935 11.5246C74.8214 11.5972 74.9579 11.6176 75.1003 11.6699C75.1846 11.7164 75.2747 11.7658 75.359 11.8094C75.4403 11.8413 75.5246 11.882 75.6059 11.9111C75.696 11.9605 75.7483 12.097 75.7803 12.1842C75.8151 12.2859 75.8994 12.3934 75.8907 12.5126C75.8791 12.6927 75.5798 13.0705 75.4432 13.2158C75.3357 13.3349 75.2194 13.3436 75.0742 13.3988C74.9347 13.4482 74.8475 13.5528 74.6906 13.5674C74.4698 13.579 74.2373 13.5267 74.0339 13.5064C73.8508 13.5064 73.6677 13.4947 73.4905 13.4831C73.1912 13.4569 72.8541 13.332 72.5955 13.2071C72.4938 13.1518 72.3979 13.0908 72.2991 13.0298C72.2003 12.992 72.0958 12.9455 71.9999 12.9048C71.9272 12.8351 71.8487 12.7683 71.779 12.6985C71.6977 12.6375 71.5872 12.5939 71.5204 12.5184C71.4071 12.3818 71.3984 12.1784 71.3693 12.0011C71.3228 11.7164 71.3838 11.1672 71.5814 10.9783C71.6715 10.8911 71.7906 10.8679 71.8952 10.8156C72.1016 10.7139 72.1713 10.6587 72.4444 10.6587C72.4735 10.6441 72.5025 10.6238 72.5287 10.6064L72.5316 10.5977Z" fill="#008CD6"/>
<path fill-rule="evenodd" clip-rule="evenodd" d="M94.3364 11.0224C94.9524 11.0457 95.6964 11.8186 95.8765 12.3707C95.9288 12.5305 95.8939 12.731 95.9404 12.9054C95.9608 12.9867 96.0246 13.0391 96.0683 13.1117C96.1641 13.2773 96.2775 13.5941 96.1874 13.8091C96.138 13.9253 96.0246 14.0067 95.9666 14.1229C95.8823 14.274 95.7923 14.46 95.6091 14.5297C95.3825 14.6024 95.0861 14.5791 94.8246 14.5791C94.5631 14.5791 94.2493 14.5966 94.04 14.4832C93.9122 14.3815 93.7902 14.2856 93.6623 14.181C93.5053 14.0677 93.3514 13.9893 93.2409 13.8062C93.0869 13.533 93.023 13.2425 92.9271 12.9403C92.8342 12.6758 92.6714 12.4259 92.6714 12.115C92.6656 11.6385 93.2148 11.2607 93.5925 11.13C93.6942 11.0893 93.8279 11.1038 93.95 11.1038C94.0081 11.0893 94.0604 11.0864 94.1127 11.0747C94.1853 11.0544 94.2609 11.0428 94.3335 11.0195L94.3364 11.0224Z" fill="#008CD6"/>
<path fill-rule="evenodd" clip-rule="evenodd" d="M162.277 11.2488C162.881 11.5277 163.212 11.5568 163.482 12.1002C163.558 12.2629 163.866 12.5564 163.936 12.7307C163.968 12.8092 164.04 12.8615 164.093 12.9283C164.215 13.0823 164.38 13.3961 164.331 13.6344C164.293 13.7623 164.194 13.864 164.151 13.9947C164.093 14.1633 163.776 14.512 163.602 14.602C163.389 14.7125 163.328 14.7183 163.07 14.756C162.805 14.7938 162.619 14.7996 162.399 14.7095C162.259 14.6282 162.201 14.512 162.059 14.4277C162.041 14.1836 161.803 13.9947 161.669 13.8204C161.474 13.5618 161.286 13.4194 161.126 13.123C160.992 12.8557 160.632 12.7307 160.58 12.4053C160.495 11.9142 160.975 11.4376 161.329 11.2371C161.425 11.1848 161.565 11.179 161.681 11.1616C161.733 11.1412 161.785 11.1238 161.841 11.1064C161.907 11.0773 162.204 11.2807 162.274 11.2517L162.277 11.2488Z" fill="#008CD6"/>
<path fill-rule="evenodd" clip-rule="evenodd" d="M40.8319 10.5422C40.7941 10.2981 40.7592 10.0569 40.7244 9.80994C40.675 9.61816 40.5529 9.48159 40.4919 9.30143C40.4803 9.22297 40.4687 9.14742 40.4512 9.07187C40.4018 8.96727 40.3524 8.86556 40.3031 8.76386C40.2682 8.66506 40.2275 8.56045 40.1897 8.46456C40.0793 8.35414 39.9718 8.24663 39.8585 8.13911C39.78 8.05194 39.7335 7.95314 39.6609 7.87178C39.5098 7.7323 39.3616 7.58992 39.2076 7.44754C38.9955 7.28481 38.6584 7.27028 38.545 7.00005C38.3358 6.52059 38.7165 5.9743 38.7717 5.49775C38.7862 5.37571 38.6874 5.22751 38.6497 5.11709C38.609 4.97762 38.5683 4.84104 38.5305 4.71028C38.4027 4.42552 38.1382 4.30057 37.8709 4.2163C37.6617 4.14365 37.2869 4.01289 37.0515 4.10878C36.9818 4.12041 36.9033 4.12622 36.8306 4.13494C36.4761 4.13494 36.2901 4.25117 36.1158 4.5185C36.0199 4.6696 35.9124 4.75387 35.8659 4.93112C35.8601 5.05898 35.8485 5.18683 35.8398 5.31178C35.8252 5.66629 35.8398 5.89875 35.587 6.11959C35.2993 6.11959 34.846 6.14284 34.6542 5.95977C34.6164 5.922 34.4857 5.86679 34.4769 5.81739C34.4479 5.64304 34.3898 5.58783 34.3578 5.4222C34.3288 5.28854 34.2677 5.16649 34.2677 5.01249C34.2677 4.87591 34.2881 4.71609 34.2764 4.57662C34.2474 4.35578 34.2183 4.13494 34.1806 3.917C34.1806 3.83564 34.1922 3.75718 34.2387 3.70779C34.3375 3.57993 34.814 3.63224 34.9651 3.60027C35.2412 3.54797 35.6422 3.50148 35.8601 3.33294C35.9502 3.22833 36.0374 3.12372 36.1245 3.02202C36.2291 2.91741 36.3308 2.84767 36.3919 2.71691C36.4442 2.60068 36.5052 2.19096 36.4413 2.08345C36.3715 1.99047 36.3047 1.89457 36.2408 1.80449C36.2088 1.71151 36.203 1.57203 36.1187 1.5081C35.9473 1.38025 34.875 1.2059 34.6397 1.31632C34.2358 1.31632 34.0992 1.2059 33.9452 0.868831C33.9103 0.784563 33.8958 0.677049 33.8377 0.60731C33.6837 0.435868 33.4919 0.354506 33.3088 0.246992C33.2507 0.203405 33.1868 0.159818 33.1287 0.119137C33.0211 0.05521 32.8991 0.0290579 32.7771 0C32.748 0.0145289 32.7189 0.0319637 32.6957 0.0523042C32.5562 0.0523042 32.4487 0.11042 32.3267 0.148195C32.1029 0.217934 31.8792 0.27605 31.7542 0.502702C31.7164 0.584064 31.6816 0.66252 31.6438 0.735165C31.577 0.845585 31.4985 0.915324 31.4549 1.04027C31.3852 1.24368 31.4259 1.46161 31.266 1.61562C31.144 1.74347 30.9174 1.74347 30.7517 1.79287C30.6558 1.84808 30.5629 1.89748 30.467 1.95269C30.0921 2.05149 29.511 2.08054 29.293 2.44958C29.2087 2.58325 29.2262 2.96972 29.2204 3.14406C29.2146 3.26901 29.2146 3.45208 29.2756 3.54797C29.4993 3.88504 30.3013 3.98674 30.7169 3.96059C30.9406 3.94316 31.3067 3.88213 31.4811 4.02452C31.5159 4.05358 31.5392 4.08554 31.545 4.12913C31.5537 4.21921 31.5537 4.30928 31.5537 4.39646C31.6322 4.95728 31.6874 5.50938 31.7339 6.09344C31.7426 6.20386 31.8007 6.5264 31.7804 6.60486C31.6816 6.98261 31.1673 6.94774 30.9261 7.10175C30.8273 7.19473 30.7343 7.29062 30.6384 7.38652C30.5193 7.46788 30.403 7.54343 30.281 7.63351C30.2083 7.69453 30.1618 7.79623 30.0718 7.85435C29.9061 7.96477 29.7434 8.02288 29.6126 8.19433C29.4993 8.3832 29.3831 8.56917 29.2698 8.75514C29.1564 8.85684 29.0402 8.96727 28.9327 9.06897C28.8949 9.17939 28.8484 9.28109 28.8048 9.39151C28.6537 9.71115 28.5985 10.0279 28.5201 10.3969C28.4765 10.5974 28.4155 10.8212 28.4242 11.0536C28.4387 11.3122 28.5085 11.5534 28.5695 11.8004C28.6305 12.0329 28.677 12.245 28.8107 12.4426C28.8688 12.5356 28.9821 12.5704 29.0605 12.6315C29.1245 12.6954 29.1884 12.7593 29.2523 12.8174C29.4005 12.9395 29.6126 12.9918 29.7841 13.0673C30.1125 13.2068 30.4146 13.4189 30.7837 13.5003C31.2544 13.5991 31.7426 13.4654 32.1727 13.3841C32.4342 13.3521 32.6957 13.3172 32.9659 13.2824C33.2768 13.2213 33.6052 13.0935 33.8784 12.9424C33.9568 12.8639 34.044 12.7884 34.1224 12.7041C34.2706 12.6082 34.4159 12.5065 34.5641 12.4135C34.7443 12.3147 34.9361 12.2479 35.0872 12.1055C35.1889 12.0154 35.1976 11.8818 35.2877 11.783C35.4678 11.6144 35.6422 11.4488 35.8252 11.2861C35.9792 11.0914 36.1797 10.9548 36.3541 10.7718C36.4471 10.673 36.5691 10.6323 36.6534 10.5248C36.7115 10.4202 36.7696 10.3097 36.8277 10.2051C36.9265 10.1005 37.0253 9.99882 37.127 9.90293C37.1909 9.83319 37.2026 9.71405 37.281 9.65303C37.3304 9.61816 37.3537 9.59492 37.4089 9.62979C37.5716 9.75183 37.6385 10.0511 37.7314 10.2255C37.7779 10.3068 37.8273 10.3969 37.8738 10.4812C37.9261 10.6178 37.9319 10.7834 37.961 10.9345C38.0017 11.1408 38.0394 11.3355 38.0801 11.5418C38.1208 12.1753 37.9174 12.7128 37.746 13.2446C37.682 13.4654 37.6123 13.6921 37.5484 13.9158C37.4641 14.1454 37.2781 14.3517 37.2491 14.6103C37.2171 14.866 37.2636 15.206 37.4147 15.3891C37.4903 15.453 37.56 15.5198 37.6356 15.5808C37.7082 15.6651 37.7314 15.7784 37.8419 15.8395C38.0511 15.9615 38.3126 16.0254 38.548 16.0894C38.7194 16.1358 38.9083 16.2027 39.0942 16.1823C39.1931 16.1765 39.2541 16.1329 39.3325 16.0661C39.4284 15.9818 39.4633 15.8598 39.5505 15.7639C39.6754 15.6186 39.8788 15.5576 39.9805 15.3832C40.1113 15.1711 40.1462 14.9154 40.2682 14.7004C40.3234 14.5871 40.3961 14.4825 40.4251 14.3575C40.4542 14.2238 40.4629 14.0756 40.5036 13.9565C40.5617 13.8257 40.614 13.6979 40.6779 13.5642C40.7506 13.2097 40.7825 12.8552 40.861 12.5065C40.89 12.3496 40.9714 12.2014 40.983 12.0387C41.015 11.4982 40.9046 11.0071 40.8319 10.5306V10.5422ZM32.3296 11.0391C32.0855 11.3674 31.6176 11.5621 31.112 11.4488C30.435 11.289 31.2893 9.99591 31.5014 9.74892C31.5915 9.67628 31.6758 9.60363 31.7658 9.52518C31.8995 9.5368 32.0477 9.52518 32.1436 9.59201C32.3354 9.71115 32.2743 10.0104 32.2715 10.208C32.2569 10.4056 32.3964 10.8531 32.3296 11.0391ZM35.1801 8.67959C35.122 8.76386 35.0029 8.94983 34.9186 9.02247C34.8431 9.03991 34.628 9.09512 34.5699 9.037C34.4537 8.92658 34.3636 8.64182 34.3781 8.22048C34.4392 8.09843 34.6484 7.95024 34.8256 7.95024C35.0029 7.95024 35.1976 7.90084 35.3429 8.14202C35.3109 8.40063 35.2354 8.57208 35.1801 8.6825V8.67959Z" fill="#008CD6"/>
<path fill-rule="evenodd" clip-rule="evenodd" d="M55.2884 5.93555C55.7242 5.93555 56.3519 6.27262 56.5059 6.68524C56.6338 7.02522 56.532 7.4698 56.5204 7.85337C56.5291 8.24274 56.5378 8.63503 56.5466 9.03021C56.5466 9.30335 56.6076 9.59103 56.6686 9.84965C56.6861 9.91357 56.7035 9.97459 56.718 10.0385C56.7383 10.2594 56.5873 10.5035 56.7093 10.7098C56.7587 10.8027 56.8575 10.8434 56.9476 10.9015C57.0522 10.9829 57.1568 11.0672 57.2672 11.1456C57.3922 11.2183 57.5113 11.288 57.6334 11.3607C57.8135 11.4827 57.8745 11.657 58.0314 11.8052C58.1593 11.9273 58.3162 11.9767 58.4499 12.0755C58.5632 12.1539 58.6039 12.2789 58.6882 12.3777C58.784 12.491 58.9119 12.5637 58.9787 12.6915C59.0717 12.8891 59.0514 13.3831 59.0194 13.6185C59.0049 13.7579 58.9119 13.8625 58.8596 13.9875C58.7782 14.1618 58.7492 14.4902 58.5313 14.5745C58.3569 14.6442 57.8338 14.5686 57.677 14.5047C57.5317 14.4437 57.3951 14.3304 57.2498 14.2664C57.026 14.156 56.8081 14.095 56.5989 13.941C56.4332 13.8248 56.4129 13.5894 56.1892 13.5429C55.9451 13.4848 55.8143 13.7608 55.6719 13.8945C55.5615 14.0049 55.1285 14.4146 54.992 14.464C54.7159 14.5628 54.2103 14.8534 53.9023 14.8534C53.5594 14.8534 52.8184 14.99 52.461 14.9377C52.3041 14.9144 52.1269 14.9115 51.9816 14.8738C51.8566 14.8447 51.5893 14.6413 51.4789 14.5745C51.4004 14.4844 51.2203 14.3246 51.136 14.2403C51.0111 14.1444 50.8599 13.9904 50.7583 13.8596C50.7001 13.755 50.5752 13.6853 50.5142 13.5807C50.3979 13.4296 50.3543 13.0867 50.3485 12.8862C50.3427 12.7583 50.2962 12.6189 50.3224 12.5114C50.3369 12.3864 50.3514 12.2789 50.3747 12.151C50.4386 11.936 50.4328 11.7646 50.4938 11.5524C50.5345 11.4362 50.6536 11.2706 50.7292 11.1747C50.9355 10.919 51.3772 10.5703 51.6387 10.4192C51.7869 10.3378 51.9031 10.2448 52.0571 10.178C52.2605 10.085 53.5362 10.1518 53.6205 9.91939C53.6902 9.72179 53.6321 9.43993 53.6524 9.21619C53.6698 8.99825 53.7396 8.79194 53.7512 8.56239C53.7599 8.28052 53.7599 7.99866 53.7657 7.7197C53.7948 7.35648 53.9081 6.98744 54.0796 6.70267C54.1319 6.60969 54.2249 6.55157 54.283 6.47021C54.3498 6.37432 54.3585 6.24647 54.4602 6.17963C54.6898 6.03435 55.0239 6.014 55.2884 5.93555ZM53.821 12.2121C53.6756 12.029 53.5216 12.029 53.3444 12.029C53.1672 12.029 52.833 12.1539 52.769 12.2411C52.5599 12.8194 52.9812 13.0257 53.3124 13.0257C53.5362 13.014 53.821 12.6915 53.821 12.2121Z" fill="#008CD6"/>
</g>
<defs>
<clipPath id="clip0_11_254">
<rect width="181.214" height="51.9991" fill="white"/>
</clipPath>
</defs>
</svg>
